<svg id="Layer_1" data-name="Layer 1" xmlns="http://www.w3.org/2000/svg" viewBox="0 0 1921 1078.95"><defs><style>.cls-1{fill:#9eefe6;}.cls-2{fill:#a7e070;}.cls-3{fill:#6fe26f;}.cls-4{fill:#36b239;}.cls-5{fill:#011700;}.cls-6{fill:#ffe573;}.cls-7{fill:#726317;}.cls-8{fill:#724417;}.cls-9{fill:#a28900;}.cls-10{fill:#00cfdf;}.cls-11{fill:#e6e3d0;}.cls-12{fill:#f2eb46;}.cls-13{fill:#f4eed7;}.cls-14{fill:#094f05;}.cls-15{fill:#22bcb9;}.cls-16{fill:aqua;}.cls-17{fill:#686551;}.cls-18{fill:#565442;}.cls-19{fill:#fff;}.cls-20{fill:#59990e;}.cls-21{fill:#685c4d;}.cls-22{fill:#157005;}.cls-23{fill:#77673d;}</style></defs><rect class="cls-1" x="2" width="1919" height="630.34"/><path class="cls-2" d="M750.87,679.06l-489.46-3.55C265,530.69,484.8,412.61,750.87,412.61c268.53,0,489.5,120.28,489.5,266.45Z" transform="translate(1 0)"/><path class="cls-3" d="M1424.5,700.85,935,697.3c3.55-144.82,223.39-262.9,489.46-262.9C1693,434.4,1914,554.68,1914,700.85Z" transform="translate(1 0)"/><rect class="cls-4" y="604.03" width="1920" height="474.03"/><path class="cls-5" d="M1923,569.05" transform="translate(1 0)"/><rect class="cls-6" x="1732.3" y="501.84" width="186.91" height="137.82"/><polygon class="cls-7" points="1825.96 416.13 1872.59 458.74 1919.22 501.35 1825.96 501.35 1732.7 501.35 1779.33 458.74 1825.96 416.13"/><rect class="cls-8" x="1813.61" y="630.41" width="17.54" height="10.23"/><rect class="cls-8" x="1831.14" y="620.67" width="17.54" height="10.23"/><rect class="cls-8" x="1883.19" y="581.15" width="17.54" height="10.23" transform="translate(3785.91 1169.32) rotate(179.9)"/><rect class="cls-8" x="1865.67" y="590.92" width="17.54" height="10.23" transform="translate(3750.88 1188.89) rotate(179.9)"/><rect class="cls-8" x="1900.74" y="590.86" width="17.54" height="10.23" transform="translate(3821.02 1188.71) rotate(179.9)"/><rect class="cls-8" x="1899.94" y="536.37" width="17.54" height="10.23" transform="translate(3819.33 1079.75) rotate(179.9)"/><rect class="cls-8" x="1730.96" y="536.36" width="17.54" height="10.23" transform="translate(3481.37 1080) rotate(179.9)"/><path class="cls-9" d="M937,536.92" transform="translate(1 0)"/><path class="cls-10" d="M679.39,649.16" transform="translate(1 0)"/><path class="cls-11" d="M48.35,898.22c7.1-11.54-14.2-11.54-7.1,0C34.15,886.68,23.5,904,37.7,904c-14.2,0-3.55,17.31,3.55,5.77-7.1,11.54,14.2,11.54,7.1,0C55.45,921.3,66.1,904,51.9,904,66.1,904,55.45,886.68,48.35,898.22Z" transform="translate(1 0)"/><ellipse class="cls-12" cx="45.93" cy="903.39" rx="4.33" ry="4.3"/><path class="cls-11" d="M170.76,883.55c7.1-11.54-14.2-11.54-7.1,0-7.1-11.54-17.75,5.77-3.55,5.77-14.2,0-3.55,17.32,3.55,5.77-7.1,11.55,14.2,11.55,7.1,0,7.1,11.55,17.75-5.77,3.55-5.77C188.51,889.32,177.86,872,170.76,883.55Z" transform="translate(1 0)"/><ellipse class="cls-12" cx="168.34" cy="888.72" rx="4.33" ry="4.3"/><path class="cls-11" d="M264.73,904.59c7.1-11.55-14.2-11.55-7.1,0-7.1-11.55-17.75,5.77-3.55,5.77-14.2,0-3.55,17.31,3.55,5.77-7.1,11.54,14.2,11.54,7.1,0,7.1,11.54,17.75-5.77,3.55-5.77C282.48,910.36,271.83,893,264.73,904.59Z" transform="translate(1 0)"/><ellipse class="cls-12" cx="262.31" cy="909.76" rx="4.33" ry="4.3"/><path class="cls-11" d="M374.76,886.6c7.1-11.55-14.2-11.55-7.1,0-7.1-11.55-17.75,5.77-3.55,5.77-14.2,0-3.55,17.31,3.55,5.77-7.1,11.54,14.2,11.54,7.1,0,7.1,11.54,17.75-5.77,3.55-5.77C392.51,892.37,381.86,875.05,374.76,886.6Z" transform="translate(1 0)"/><ellipse class="cls-12" cx="372.34" cy="891.77" rx="4.33" ry="4.3"/><path class="cls-11" d="M1796,886.48c7.1-9.74-14.2-9.74-7.1,0-7.1-9.74-17.75,4.87-3.55,4.87-14.2,0-3.55,14.61,3.55,4.87-7.1,9.74,14.2,9.74,7.1,0,7.1,9.74,17.75-4.87,3.55-4.87C1813.7,891.35,1803.05,876.74,1796,886.48Z" transform="translate(1 0)"/><ellipse class="cls-12" cx="1793.53" cy="890.85" rx="4.33" ry="3.63"/><path class="cls-5" d="M478,528.8" transform="translate(1 0)"/><rect class="cls-13" x="0.86" y="388.72" width="466.21" height="287.26"/><polygon class="cls-8" points="234.46 210.08 350.77 298.89 467.07 387.71 234.46 387.71 1.86 387.71 118.16 298.89 234.46 210.08"/><rect class="cls-8" x="203.65" y="656.7" width="43.74" height="21.32"/><rect class="cls-8" x="247.39" y="636.39" width="43.74" height="21.32"/><rect class="cls-8" x="159.91" y="636.39" width="43.74" height="21.32"/><rect class="cls-8" x="43.59" y="545.04" width="43.74" height="21.32" transform="translate(132.7 1111.31) rotate(179.92)"/><rect class="cls-8" x="-0.12" y="565.4" width="43.74" height="21.32" transform="translate(45.3 1152.09) rotate(179.92)"/><rect class="cls-8" x="87.35" y="565.28" width="43.74" height="21.32" transform="translate(220.26 1151.72) rotate(179.92)"/><rect class="cls-8" x="378.71" y="554.02" width="43.74" height="21.32" transform="translate(802.96 1128.79) rotate(179.92)"/><rect class="cls-8" x="335" y="574.38" width="43.74" height="21.32" transform="translate(715.57 1169.58) rotate(179.92)"/><rect class="cls-8" x="422.48" y="574.26" width="43.74" height="21.32" transform="translate(890.52 1169.21) rotate(179.92)"/><rect class="cls-8" x="420.49" y="460.7" width="43.74" height="21.32" transform="translate(886.38 942.09) rotate(179.92)"/><rect class="cls-8" x="-0.99" y="460.67" width="43.74" height="21.32" transform="translate(43.43 942.62) rotate(179.92)"/><rect class="cls-8" x="209" y="691.21" width="15" height="128.91" rx="7.5"/><path class="cls-14" d="M207.74,451.81,166.82,700.05a9.86,9.86,0,0,0,9.73,11.46h81.83a9.86,9.86,0,0,0,9.73-11.46L227.2,451.81C225.38,440.8,209.55,440.8,207.74,451.81Z" transform="translate(1 0)"/><rect class="cls-8" x="1845.65" y="691.07" width="15" height="128.91" rx="7.5"/><path class="cls-14" d="M1844.39,451.67l-40.91,248.24a9.86,9.86,0,0,0,9.73,11.46H1895a9.86,9.86,0,0,0,9.72-11.46l-40.91-248.24C1862,440.66,1846.21,440.66,1844.39,451.67Z" transform="translate(1 0)"/><rect class="cls-8" x="358.65" y="689.04" width="15" height="128.91" rx="7.5"/><path class="cls-14" d="M357.39,449.64,316.48,697.88a9.86,9.86,0,0,0,9.73,11.46H408a9.86,9.86,0,0,0,9.72-11.46L376.85,449.64C375,438.63,359.21,438.63,357.39,449.64Z" transform="translate(1 0)"/><rect class="cls-8" x="504.65" y="687.01" width="15" height="128.91" rx="7.5"/><path class="cls-14" d="M503.39,447.61,462.48,695.85a9.86,9.86,0,0,0,9.73,11.46H554a9.86,9.86,0,0,0,9.72-11.46L522.85,447.61C521,436.6,505.21,436.6,503.39,447.61Z" transform="translate(1 0)"/><rect class="cls-8" x="1705.65" y="694.12" width="15" height="128.91" rx="7.5"/><path class="cls-14" d="M1704.39,454.72,1663.48,703a9.86,9.86,0,0,0,9.73,11.46H1755a9.86,9.86,0,0,0,9.72-11.46l-40.91-248.24C1722,443.71,1706.21,443.71,1704.39,454.72Z" transform="translate(1 0)"/><rect class="cls-8" x="63.69" y="697.16" width="15" height="128.91" rx="7.5"/><path class="cls-14" d="M62.43,457.76,21.52,706a9.85,9.85,0,0,0,9.72,11.46h81.83A9.85,9.85,0,0,0,122.8,706L81.89,457.76C80.07,446.75,64.25,446.75,62.43,457.76Z" transform="translate(1 0)"/><rect class="cls-8" x="1567.42" y="692" width="15" height="128.91" rx="7.5"/><path class="cls-14" d="M1566.16,452.6l-40.91,248.24A9.86,9.86,0,0,0,1535,712.3h81.83a9.87,9.87,0,0,0,9.73-11.46L1585.62,452.6C1583.81,441.59,1568,441.59,1566.16,452.6Z" transform="translate(1 0)"/><rect class="cls-8" x="1428.42" y="689.97" width="15" height="128.91" rx="7.5"/><path class="cls-14" d="M1427.16,450.57,1386.25,698.8a9.86,9.86,0,0,0,9.73,11.47h81.83a9.87,9.87,0,0,0,9.73-11.47l-40.92-248.23C1444.81,439.56,1429,439.56,1427.16,450.57Z" transform="translate(1 0)"/><rect class="cls-8" x="1288.42" y="689.97" width="15" height="128.91" rx="7.5"/><path class="cls-14" d="M1287.16,450.57,1246.25,698.8a9.86,9.86,0,0,0,9.73,11.47h81.83a9.87,9.87,0,0,0,9.73-11.47l-40.92-248.23C1304.81,439.56,1289,439.56,1287.16,450.57Z" transform="translate(1 0)"/><path class="cls-15" d="M1232.57,725.91" transform="translate(1 0)"/><path class="cls-16" d="M1151.64,730.09" transform="translate(1 0)"/><path class="cls-10" d="M1330.14,742.61" transform="translate(1 0)"/><path class="cls-10" d="M1262.51,689.2" transform="translate(1 0)"/><polygon class="cls-17" points="1211.4 863.69 1198.65 863.69 1185.9 863.69 1173.15 863.69 1160.4 863.69 1160.4 833.39 1160.4 803.08 1160.4 772.78 1160.4 742.47 1169.55 734.5 1186.55 721.74 1200.94 732.9 1211.4 742.47 1211.4 772.78 1211.4 803.08 1211.4 833.39 1211.4 863.69"/><polygon class="cls-17" points="1271.27 863.69 1258.52 863.69 1245.77 863.69 1233.02 863.69 1220.27 863.69 1220.27 833.39 1220.27 803.08 1220.27 772.78 1220.27 742.47 1229.42 734.5 1246.42 721.74 1260.81 732.9 1271.27 742.47 1271.27 772.78 1271.27 803.08 1271.27 833.39 1271.27 863.69"/><polygon class="cls-17" points="1333.36 863.69 1320.61 863.69 1307.86 863.69 1295.11 863.69 1282.36 863.69 1282.36 833.39 1282.36 803.08 1282.36 772.78 1282.36 742.47 1291.51 734.5 1308.51 721.74 1322.89 732.9 1333.36 742.47 1333.36 772.78 1333.36 803.08 1333.36 833.39 1333.36 863.69"/><rect class="cls-18" x="1224.94" y="695.21" width="39.66" height="192.91" transform="translate(454.1 2036.44) rotate(-90)"/><path class="cls-15" d="M1425.37,725.91" transform="translate(1 0)"/><path class="cls-16" d="M1344.43,730.09" transform="translate(1 0)"/><path class="cls-10" d="M1522.94,742.61" transform="translate(1 0)"/><path class="cls-10" d="M1455.3,689.2" transform="translate(1 0)"/><polygon class="cls-17" points="1404.19 863.69 1391.44 863.69 1378.69 863.69 1365.94 863.69 1353.19 863.69 1353.19 833.39 1353.19 803.08 1353.19 772.78 1353.19 742.47 1362.35 734.5 1379.35 721.74 1393.73 732.9 1404.19 742.47 1404.19 772.78 1404.19 803.08 1404.19 833.39 1404.19 863.69"/><polygon class="cls-17" points="1464.07 863.69 1451.32 863.69 1438.57 863.69 1425.82 863.69 1413.07 863.69 1413.07 833.39 1413.07 803.08 1413.07 772.78 1413.07 742.47 1422.22 734.5 1439.22 721.74 1453.6 732.9 1464.07 742.47 1464.07 772.78 1464.07 803.08 1464.07 833.39 1464.07 863.69"/><polygon class="cls-17" points="1526.15 863.69 1513.4 863.69 1500.65 863.69 1487.9 863.69 1475.15 863.69 1475.15 833.39 1475.15 803.08 1475.15 772.78 1475.15 742.47 1484.31 734.5 1501.31 721.74 1515.69 732.9 1526.15 742.47 1526.15 772.78 1526.15 803.08 1526.15 833.39 1526.15 863.69"/><rect class="cls-18" x="1417.73" y="695.21" width="39.66" height="192.91" transform="translate(646.89 2229.24) rotate(-90)"/><path class="cls-15" d="M1618,725.91" transform="translate(1 0)"/><path class="cls-16" d="M1537,730.09" transform="translate(1 0)"/><path class="cls-10" d="M1715.54,742.61" transform="translate(1 0)"/><path class="cls-10" d="M1647.91,689.2" transform="translate(1 0)"/><polygon class="cls-17" points="1596.8 863.69 1584.05 863.69 1571.3 863.69 1558.55 863.69 1545.8 863.69 1545.8 833.39 1545.8 803.08 1545.8 772.78 1545.8 742.47 1554.95 734.5 1571.95 721.74 1586.34 732.9 1596.8 742.47 1596.8 772.78 1596.8 803.08 1596.8 833.39 1596.8 863.69"/><polygon class="cls-17" points="1656.67 863.69 1643.92 863.69 1631.17 863.69 1618.42 863.69 1605.67 863.69 1605.67 833.39 1605.67 803.08 1605.67 772.78 1605.67 742.47 1614.82 734.5 1631.82 721.74 1646.21 732.9 1656.67 742.47 1656.67 772.78 1656.67 803.08 1656.67 833.39 1656.67 863.69"/><polygon class="cls-17" points="1718.75 863.69 1706 863.69 1693.25 863.69 1680.5 863.69 1667.75 863.69 1667.75 833.39 1667.75 803.08 1667.75 772.78 1667.75 742.47 1676.91 734.5 1693.91 721.74 1708.29 732.9 1718.75 742.47 1718.75 772.78 1718.75 803.08 1718.75 833.39 1718.75 863.69"/><rect class="cls-18" x="1610.33" y="695.21" width="39.66" height="192.91" transform="translate(839.5 2421.84) rotate(-90)"/><path class="cls-15" d="M1810.77,725.91" transform="translate(1 0)"/><path class="cls-16" d="M1729.83,730.09" transform="translate(1 0)"/><path class="cls-10" d="M1908.33,742.61" transform="translate(1 0)"/><path class="cls-10" d="M1840.7,689.2" transform="translate(1 0)"/><polygon class="cls-17" points="1789.59 863.69 1776.84 863.69 1764.09 863.69 1751.34 863.69 1738.59 863.69 1738.59 833.39 1738.59 803.08 1738.59 772.78 1738.59 742.47 1747.75 734.5 1764.75 721.74 1779.13 732.9 1789.59 742.47 1789.59 772.78 1789.59 803.08 1789.59 833.39 1789.59 863.69"/><polygon class="cls-17" points="1849.46 863.69 1836.71 863.69 1823.96 863.69 1811.21 863.69 1798.46 863.69 1798.46 833.39 1798.46 803.08 1798.46 772.78 1798.46 742.47 1807.62 734.5 1824.62 721.74 1839 732.9 1849.46 742.47 1849.46 772.78 1849.46 803.08 1849.46 833.39 1849.46 863.69"/><polygon class="cls-17" points="1911.55 863.69 1898.8 863.69 1886.05 863.69 1873.3 863.69 1860.55 863.69 1860.55 833.39 1860.55 803.08 1860.55 772.78 1860.55 742.47 1869.7 734.5 1886.7 721.74 1901.09 732.9 1911.55 742.47 1911.55 772.78 1911.55 803.08 1911.55 833.39 1911.55 863.69"/><rect class="cls-18" x="1803.13" y="695.21" width="39.66" height="192.91" transform="translate(1032.29 2614.63) rotate(-90)"/><rect class="cls-8" x="650.42" y="682.86" width="15" height="128.91" rx="7.5"/><path class="cls-14" d="M649.16,443.46,608.25,691.7A9.86,9.86,0,0,0,618,703.16h81.83a9.87,9.87,0,0,0,9.73-11.46L668.62,443.46C666.81,432.45,651,432.45,649.16,443.46Z" transform="translate(1 0)"/><path class="cls-15" d="M84.22,720" transform="translate(1 0)"/><path class="cls-16" d="M3.28,724.14" transform="translate(1 0)"/><path class="cls-10" d="M181.78,736.66" transform="translate(1 0)"/><path class="cls-10" d="M114.15,683.25" transform="translate(1 0)"/><polygon class="cls-17" points="63.04 857.74 50.29 857.74 37.54 857.74 24.79 857.74 12.04 857.74 12.04 827.44 12.04 797.13 12.04 766.83 12.04 736.52 21.2 728.55 38.2 715.79 52.58 726.95 63.04 736.52 63.04 766.83 63.04 797.13 63.04 827.44 63.04 857.74"/><polygon class="cls-17" points="122.91 857.74 110.16 857.74 97.41 857.74 84.66 857.74 71.91 857.74 71.91 827.44 71.91 797.13 71.91 766.83 71.91 736.52 81.07 728.55 98.07 715.79 112.45 726.95 122.91 736.52 122.91 766.83 122.91 797.13 122.91 827.44 122.91 857.74"/><polygon class="cls-17" points="185 857.74 172.25 857.74 159.5 857.74 146.75 857.74 134 857.74 134 827.44 134 797.13 134 766.83 134 736.52 143.16 728.55 160.16 715.79 174.54 726.95 185 736.52 185 766.83 185 797.13 185 827.44 185 857.74"/><rect class="cls-18" x="76.58" y="689.27" width="39.66" height="192.91" transform="translate(-688.31 882.14) rotate(-90)"/><path class="cls-15" d="M277,720" transform="translate(1 0)"/><path class="cls-16" d="M196.08,724.14" transform="translate(1 0)"/><path class="cls-10" d="M374.58,736.66" transform="translate(1 0)"/><path class="cls-10" d="M307,683.25" transform="translate(1 0)"/><polygon class="cls-17" points="255.84 857.74 243.09 857.74 230.34 857.74 217.59 857.74 204.84 857.74 204.84 827.44 204.84 797.13 204.84 766.83 204.84 736.52 213.99 728.55 230.99 715.79 245.38 726.95 255.84 736.52 255.84 766.83 255.84 797.13 255.84 827.44 255.84 857.74"/><polygon class="cls-17" points="315.71 857.74 302.96 857.74 290.21 857.74 277.46 857.74 264.71 857.74 264.71 827.44 264.71 797.13 264.71 766.83 264.71 736.52 273.86 728.55 290.86 715.79 305.25 726.95 315.71 736.52 315.71 766.83 315.71 797.13 315.71 827.44 315.71 857.74"/><polygon class="cls-17" points="377.8 857.74 365.05 857.74 352.3 857.74 339.55 857.74 326.8 857.74 326.8 827.44 326.8 797.13 326.8 766.83 326.8 736.52 335.95 728.55 352.95 715.79 367.34 726.95 377.8 736.52 377.8 766.83 377.8 797.13 377.8 827.44 377.8 857.74"/><rect class="cls-18" x="269.38" y="689.27" width="39.66" height="192.91" transform="translate(-495.51 1074.93) rotate(-90)"/><path class="cls-15" d="M469.62,720" transform="translate(1 0)"/><path class="cls-16" d="M388.68,724.14" transform="translate(1 0)"/><path class="cls-10" d="M567.18,736.66" transform="translate(1 0)"/><path class="cls-10" d="M499.55,683.25" transform="translate(1 0)"/><polygon class="cls-17" points="448.44 857.74 435.69 857.74 422.94 857.74 410.19 857.74 397.44 857.74 397.44 827.44 397.44 797.13 397.44 766.83 397.44 736.52 406.6 728.55 423.6 715.79 437.98 726.95 448.44 736.52 448.44 766.83 448.44 797.13 448.44 827.44 448.44 857.74"/><polygon class="cls-17" points="508.31 857.74 495.56 857.74 482.81 857.74 470.06 857.74 457.31 857.74 457.31 827.44 457.31 797.13 457.31 766.83 457.31 736.52 466.47 728.55 483.47 715.79 497.85 726.95 508.31 736.52 508.31 766.83 508.31 797.13 508.31 827.44 508.31 857.74"/><polygon class="cls-17" points="570.4 857.74 557.65 857.74 544.9 857.74 532.15 857.74 519.4 857.74 519.4 827.44 519.4 797.13 519.4 766.83 519.4 736.52 528.55 728.55 545.55 715.79 559.94 726.95 570.4 736.52 570.4 766.83 570.4 797.13 570.4 827.44 570.4 857.74"/><rect class="cls-18" x="461.98" y="689.27" width="39.66" height="192.91" transform="translate(-302.91 1267.53) rotate(-90)"/><path class="cls-15" d="M662.41,720" transform="translate(1 0)"/><path class="cls-16" d="M581.48,724.14" transform="translate(1 0)"/><path class="cls-10" d="M760,736.66" transform="translate(1 0)"/><path class="cls-10" d="M692.35,683.25" transform="translate(1 0)"/><polygon class="cls-17" points="641.24 857.74 628.49 857.74 615.74 857.74 602.99 857.74 590.24 857.74 590.24 827.44 590.24 797.13 590.24 766.83 590.24 736.52 599.39 728.55 616.39 715.79 630.78 726.95 641.24 736.52 641.24 766.83 641.24 797.13 641.24 827.44 641.24 857.74"/><polygon class="cls-17" points="703 856.66 690.25 856.66 677.5 856.66 664.75 856.66 652 856.66 652 826.35 652 796.05 652 765.74 652 735.44 661.15 727.46 678.15 714.7 692.54 725.87 703 735.44 703 765.74 703 796.05 703 826.35 703 856.66"/><polygon class="cls-17" points="763.2 857.74 750.45 857.74 737.7 857.74 724.95 857.74 712.2 857.74 712.2 827.44 712.2 797.13 712.2 766.83 712.2 736.52 721.35 728.55 738.35 715.79 752.73 726.95 763.2 736.52 763.2 766.83 763.2 797.13 763.2 827.44 763.2 857.74"/><rect class="cls-18" x="654.78" y="689.27" width="39.66" height="192.91" transform="translate(-110.11 1460.33) rotate(-90)"/><path class="cls-11" d="M1863.44,908.3c7.1-9.74-14.2-9.74-7.1,0-7.1-9.74-17.75,4.87-3.55,4.87-14.2,0-3.55,14.61,3.55,4.87-7.1,9.74,14.2,9.74,7.1,0,7.1,9.74,17.75-4.87,3.55-4.87C1881.19,913.17,1870.54,898.56,1863.44,908.3Z" transform="translate(1 0)"/><ellipse class="cls-12" cx="1861.02" cy="912.67" rx="4.33" ry="3.63"/><path class="cls-11" d="M1630.44,890c7.1-9.74-14.2-9.74-7.1,0-7.1-9.74-17.75,4.87-3.55,4.87-14.2,0-3.55,14.61,3.55,4.87-7.1,9.74,14.2,9.74,7.1,0,7.1,9.74,17.75-4.87,3.55-4.87C1648.19,894.9,1637.54,880.29,1630.44,890Z" transform="translate(1 0)"/><ellipse class="cls-12" cx="1628.02" cy="894.4" rx="4.33" ry="3.63"/><path class="cls-11" d="M1718.44,910.33c7.1-9.74-14.2-9.74-7.1,0-7.1-9.74-17.75,4.87-3.55,4.87-14.2,0-3.55,14.61,3.55,4.87-7.1,9.74,14.2,9.74,7.1,0,7.1,9.74,17.75-4.87,3.55-4.87C1736.19,915.2,1725.54,900.59,1718.44,910.33Z" transform="translate(1 0)"/><ellipse class="cls-12" cx="1716.02" cy="914.7" rx="4.33" ry="3.63"/><ellipse class="cls-19" cx="574.92" cy="93.09" rx="58.08" ry="43.39"/><ellipse class="cls-19" cx="503.13" cy="118.99" rx="71.13" ry="58.79"/><ellipse class="cls-19" cx="573.61" cy="153.98" rx="54.82" ry="48.99"/><ellipse class="cls-19" cx="1072.5" cy="231.15" rx="52.5" ry="27.91"/><ellipse class="cls-19" cx="1114.5" cy="209.83" rx="52.5" ry="27.91"/><ellipse class="cls-19" cx="1119.5" cy="244.34" rx="52.5" ry="27.91"/><ellipse class="cls-19" cx="1667.5" cy="200.43" rx="52.5" ry="27.91"/><ellipse class="cls-19" cx="1725.5" cy="169.47" rx="54.5" ry="40.6"/><ellipse class="cls-4" cx="1102.5" cy="547.07" rx="20.5" ry="23.35"/><ellipse class="cls-4" cx="1136.5" cy="522.71" rx="20.5" ry="23.35"/><ellipse class="cls-4" cx="1172.5" cy="502.41" rx="20.5" ry="23.35"/><ellipse class="cls-4" cx="1073.5" cy="578.54" rx="20.5" ry="23.35"/><ellipse class="cls-20" cx="747.5" cy="458.25" rx="15.5" ry="18.78"/><ellipse class="cls-20" cx="724.5" cy="478.56" rx="15.5" ry="18.78"/><ellipse class="cls-20" cx="770.5" cy="445.06" rx="15.5" ry="18.78"/><ellipse class="cls-20" cx="563.5" cy="511.04" rx="15.5" ry="18.78"/><ellipse class="cls-20" cx="585.5" cy="489.72" rx="15.5" ry="18.78"/><path class="cls-21" d="M1020,765" transform="translate(1 0)"/><path class="cls-21" d="M892.45,427.78a4.88,4.88,0,0,0-5.88,2.62L808,600.22a3.89,3.89,0,0,0,2.14,5.46,4.88,4.88,0,0,0,5.87-2.63l78.57-169.82A3.88,3.88,0,0,0,892.45,427.78Z" transform="translate(1 0)"/><path class="cls-22" d="M888.5,438.46l-14.45-3.55a12,12,0,0,1,.94-1.5,14.77,14.77,0,0,1,1.16-1.37Z" transform="translate(1 0)"/><path class="cls-22" d="M887.61,438.1l-9.37-9.37a18.18,18.18,0,0,1,1.85-.82,17.51,17.51,0,0,1,1.94-.61Z" transform="translate(1 0)"/><path class="cls-22" d="M881.48,452.93,867,449.39a13.33,13.33,0,0,1,.94-1.5,14.77,14.77,0,0,1,1.16-1.37Z" transform="translate(1 0)"/><path class="cls-22" d="M880.59,452.57l-9.37-9.36a16.22,16.22,0,0,1,1.85-.82c.63-.24,1.28-.44,1.94-.62Z" transform="translate(1 0)"/><path class="cls-22" d="M874.67,467.82l-14.45-3.54a12.5,12.5,0,0,1,2.1-2.87Z" transform="translate(1 0)"/><path class="cls-22" d="M873.77,467.46l-9.36-9.37a18,18,0,0,1,1.84-.81,17.72,17.72,0,0,1,2-.62Z" transform="translate(1 0)"/><path class="cls-22" d="M867.85,481.22l-14.45-3.54a12.49,12.49,0,0,1,.94-1.5,13.57,13.57,0,0,1,1.16-1.37Z" transform="translate(1 0)"/><path class="cls-22" d="M867,480.86l-9.37-9.37a19.63,19.63,0,0,1,3.79-1.43Z" transform="translate(1 0)"/><path class="cls-22" d="M861,494.62l-14.45-3.54a10.73,10.73,0,0,1,.94-1.5,11.46,11.46,0,0,1,1.16-1.38Z" transform="translate(1 0)"/><path class="cls-22" d="M860.14,494.26l-9.36-9.37a19.31,19.31,0,0,1,1.84-.82,20.12,20.12,0,0,1,2-.61Z" transform="translate(1 0)"/><path class="cls-22" d="M854.22,509.51,839.77,506a10.73,10.73,0,0,1,.94-1.5,13.67,13.67,0,0,1,1.16-1.38Z" transform="translate(1 0)"/><path class="cls-22" d="M853.33,509.15,844,499.78a18.18,18.18,0,0,1,1.85-.82c.63-.23,1.28-.44,1.94-.61Z" transform="translate(1 0)"/><path class="cls-22" d="M849.11,522.91l-14.45-3.55a11.25,11.25,0,0,1,.94-1.49,12.47,12.47,0,0,1,1.16-1.38Z" transform="translate(1 0)"/><path class="cls-22" d="M848.22,522.55l-9.37-9.37a17.25,17.25,0,0,1,1.85-.82,19.1,19.1,0,0,1,1.94-.61Z" transform="translate(1 0)"/><path class="cls-22" d="M842.3,536.31l-14.45-3.55a11.17,11.17,0,0,1,.93-1.49,13.67,13.67,0,0,1,1.16-1.38Z" transform="translate(1 0)"/><path class="cls-22" d="M841.4,536,832,526.58a18.18,18.18,0,0,1,1.85-.82,20.12,20.12,0,0,1,2-.61Z" transform="translate(1 0)"/><path class="cls-22" d="M835.48,551.2,821,547.65a12,12,0,0,1,.94-1.5,13.37,13.37,0,0,1,1.16-1.37Z" transform="translate(1 0)"/><path class="cls-22" d="M834.59,550.84l-9.37-9.37a15.47,15.47,0,0,1,1.85-.82A16.87,16.87,0,0,1,829,540Z" transform="translate(1 0)"/><path class="cls-22" d="M828.66,564.6l-14.44-3.55a11.94,11.94,0,0,1,.93-1.5,14.77,14.77,0,0,1,1.16-1.37Z" transform="translate(1 0)"/><path class="cls-22" d="M827.77,564.24l-9.37-9.37a16.22,16.22,0,0,1,1.85-.82,18.21,18.21,0,0,1,1.94-.61Z" transform="translate(1 0)"/><path class="cls-22" d="M821.85,578l-14.45-3.54a12,12,0,0,1,.94-1.5,13.37,13.37,0,0,1,1.16-1.37Z" transform="translate(1 0)"/><path class="cls-22" d="M821,577.64l-9.37-9.37a15.47,15.47,0,0,1,1.85-.82,19.12,19.12,0,0,1,1.94-.62Z" transform="translate(1 0)"/><path class="cls-22" d="M816.74,589.91l-14.45-3.55a12,12,0,0,1,.94-1.5,12.21,12.21,0,0,1,1.16-1.37Z" transform="translate(1 0)"/><path class="cls-22" d="M815.84,589.55l-9.36-9.37a15.32,15.32,0,0,1,1.84-.82,17.68,17.68,0,0,1,1.95-.61Z" transform="translate(1 0)"/><path class="cls-22" d="M813.33,601.82l-14.45-3.55a12,12,0,0,1,.94-1.5A13.37,13.37,0,0,1,801,595.4Z" transform="translate(1 0)"/><path class="cls-22" d="M812.44,601.46l-9.37-9.37a15.47,15.47,0,0,1,1.85-.82,16.87,16.87,0,0,1,1.94-.61Z" transform="translate(1 0)"/><path class="cls-21" d="M927.58,434.86a4.61,4.61,0,0,0-5.57,2.5L847.54,598.89a3.7,3.7,0,0,0,2,5.19,4.63,4.63,0,0,0,5.57-2.5l74.47-161.53A3.71,3.71,0,0,0,927.58,434.86Z" transform="translate(1 0)"/><path class="cls-22" d="M923.84,445l-13.69-3.37a11.22,11.22,0,0,1,.88-1.43,12.23,12.23,0,0,1,1.11-1.31Z" transform="translate(1 0)"/><path class="cls-22" d="M923,444.68l-8.88-8.92a18.69,18.69,0,0,1,1.76-.77,18,18,0,0,1,1.84-.59Z" transform="translate(1 0)"/><path class="cls-22" d="M917.19,458.79l-13.7-3.37a12.58,12.58,0,0,1,.89-1.43,13.39,13.39,0,0,1,1.1-1.31Z" transform="translate(1 0)"/><path class="cls-22" d="M916.34,458.45l-8.88-8.92a18.69,18.69,0,0,1,1.76-.77,18,18,0,0,1,1.84-.59Z" transform="translate(1 0)"/><path class="cls-22" d="M910.73,473,897,469.58a11.22,11.22,0,0,1,.88-1.43,12.21,12.21,0,0,1,1.1-1.3Z" transform="translate(1 0)"/><path class="cls-22" d="M909.88,472.61,901,463.7a16.46,16.46,0,0,1,1.76-.78,18,18,0,0,1,1.84-.59Z" transform="translate(1 0)"/><path class="cls-22" d="M904.27,485.69l-13.69-3.37a11.86,11.86,0,0,1,.88-1.42,13.39,13.39,0,0,1,1.1-1.31Z" transform="translate(1 0)"/><path class="cls-22" d="M903.42,485.35l-8.88-8.91a16.46,16.46,0,0,1,1.76-.78,17.93,17.93,0,0,1,1.84-.58Z" transform="translate(1 0)"/><path class="cls-22" d="M897.81,498.44l-13.69-3.37a12,12,0,0,1,.88-1.43,12.14,12.14,0,0,1,1.11-1.3Z" transform="translate(1 0)"/><path class="cls-22" d="M897,498.1l-8.88-8.91a16.46,16.46,0,0,1,1.76-.78,18,18,0,0,1,1.84-.59Z" transform="translate(1 0)"/><path class="cls-22" d="M891.35,512.6l-13.69-3.37a11.12,11.12,0,0,1,.88-1.42,11.32,11.32,0,0,1,1.11-1.31Z" transform="translate(1 0)"/><path class="cls-22" d="M890.5,512.26l-8.88-8.91a16.46,16.46,0,0,1,1.76-.78,17.93,17.93,0,0,1,1.84-.58Z" transform="translate(1 0)"/><path class="cls-22" d="M886.51,525.35,872.81,522a11.3,11.3,0,0,1,.89-1.43,13.39,13.39,0,0,1,1.1-1.31Z" transform="translate(1 0)"/><path class="cls-22" d="M885.66,525l-8.88-8.92a18.5,18.5,0,0,1,1.75-.77,18.79,18.79,0,0,1,1.84-.59Z" transform="translate(1 0)"/><path class="cls-22" d="M880.05,538.09l-13.7-3.37a11.2,11.2,0,0,1,.89-1.42,12.31,12.31,0,0,1,1.1-1.31Z" transform="translate(1 0)"/><path class="cls-22" d="M879.2,537.75l-8.88-8.91a16.29,16.29,0,0,1,1.75-.78,18.74,18.74,0,0,1,1.84-.58Z" transform="translate(1 0)"/><path class="cls-22" d="M873.59,552.25l-13.7-3.37a12,12,0,0,1,.89-1.42,13.39,13.39,0,0,1,1.1-1.31Z" transform="translate(1 0)"/><path class="cls-22" d="M872.74,551.91,863.86,543a16.29,16.29,0,0,1,1.75-.78,18.11,18.11,0,0,1,1.85-.58Z" transform="translate(1 0)"/><path class="cls-22" d="M867.13,565l-13.7-3.37a11.3,11.3,0,0,1,.89-1.43,13.29,13.29,0,0,1,1.1-1.3Z" transform="translate(1 0)"/><path class="cls-22" d="M866.28,564.66l-8.88-8.91a17.23,17.23,0,0,1,1.75-.78,18.14,18.14,0,0,1,1.85-.59Z" transform="translate(1 0)"/><path class="cls-22" d="M860.67,577.74,847,574.37a12,12,0,0,1,.89-1.42,13.39,13.39,0,0,1,1.1-1.31Z" transform="translate(1 0)"/><path class="cls-22" d="M859.82,577.4l-8.88-8.91a17.23,17.23,0,0,1,1.75-.78,18.11,18.11,0,0,1,1.85-.58Z" transform="translate(1 0)"/><path class="cls-22" d="M855.82,589.07l-13.69-3.37a10.79,10.79,0,0,1,.89-1.42,12.12,12.12,0,0,1,1.1-1.31Z" transform="translate(1 0)"/><path class="cls-22" d="M855,588.73l-8.88-8.91a16.29,16.29,0,0,1,1.75-.78,17.93,17.93,0,0,1,1.84-.58Z" transform="translate(1 0)"/><path class="cls-22" d="M852.59,600.4,838.9,597a10.79,10.79,0,0,1,.89-1.42,13.39,13.39,0,0,1,1.1-1.31Z" transform="translate(1 0)"/><path class="cls-22" d="M851.75,600.06l-8.88-8.91a16.29,16.29,0,0,1,1.75-.78,17.93,17.93,0,0,1,1.84-.58Z" transform="translate(1 0)"/><path class="cls-21" d="M848.53,417.65a4.61,4.61,0,0,0-5.69,2.77l-76.11,178.9a4.23,4.23,0,0,0,2.07,5.75,4.61,4.61,0,0,0,5.69-2.77L850.6,423.4A4.23,4.23,0,0,0,848.53,417.65Z" transform="translate(1 0)"/><path class="cls-22" d="M844.71,428.9l-14-3.73a11.94,11.94,0,0,1,.91-1.58,15.19,15.19,0,0,1,1.12-1.45Z" transform="translate(1 0)"/><path class="cls-22" d="M843.84,428.52l-9.07-9.87a18.51,18.51,0,0,1,1.79-.86,16,16,0,0,1,1.88-.64Z" transform="translate(1 0)"/><path class="cls-22" d="M837.91,444.15l-14-3.73a13.16,13.16,0,0,1,.91-1.58A12.76,12.76,0,0,1,826,437.4Z" transform="translate(1 0)"/><path class="cls-22" d="M837,443.78,828,433.91a17.43,17.43,0,0,1,1.79-.87,19.79,19.79,0,0,1,1.88-.64Z" transform="translate(1 0)"/><path class="cls-22" d="M831.31,459.84l-14-3.73a11.94,11.94,0,0,1,.91-1.58,14,14,0,0,1,1.12-1.45Z" transform="translate(1 0)"/><path class="cls-22" d="M830.44,459.46l-9.07-9.87a15.53,15.53,0,0,1,1.79-.86,16.66,16.66,0,0,1,1.88-.65Z" transform="translate(1 0)"/><path class="cls-22" d="M824.71,474l-14-3.73a11.94,11.94,0,0,1,.91-1.58,12.66,12.66,0,0,1,1.12-1.44Z" transform="translate(1 0)"/><path class="cls-22" d="M823.84,473.58l-9.07-9.87a16.48,16.48,0,0,1,1.79-.87,18,18,0,0,1,1.88-.64Z" transform="translate(1 0)"/><path class="cls-22" d="M818.1,488.07l-14-3.73a11.94,11.94,0,0,1,.91-1.58,13.72,13.72,0,0,1,1.12-1.45Z" transform="translate(1 0)"/><path class="cls-22" d="M817.24,487.69l-9.08-9.87A15.53,15.53,0,0,1,810,477a19.1,19.1,0,0,1,1.89-.65Z" transform="translate(1 0)"/><path class="cls-22" d="M811.5,503.75l-14-3.73a11.94,11.94,0,0,1,.91-1.58,12.66,12.66,0,0,1,1.12-1.44Z" transform="translate(1 0)"/><path class="cls-22" d="M810.64,503.38l-9.08-9.87a17.43,17.43,0,0,1,1.79-.87,19.07,19.07,0,0,1,1.89-.64Z" transform="translate(1 0)"/><path class="cls-22" d="M806.55,517.87l-14-3.73a13.08,13.08,0,0,1,.9-1.58,15.31,15.31,0,0,1,1.13-1.45Z" transform="translate(1 0)"/><path class="cls-22" d="M805.69,517.49l-9.08-9.87a17.37,17.37,0,0,1,1.79-.86,19.84,19.84,0,0,1,1.88-.65Z" transform="translate(1 0)"/><path class="cls-22" d="M800,532l-14-3.74a12.52,12.52,0,0,1,.9-1.58,14,14,0,0,1,1.13-1.44Z" transform="translate(1 0)"/><path class="cls-22" d="M799.08,531.61,790,521.74a15.53,15.53,0,0,1,1.79-.86,17.38,17.38,0,0,1,1.88-.65Z" transform="translate(1 0)"/><path class="cls-22" d="M793.35,547.67l-14-3.73a13.16,13.16,0,0,1,.91-1.58,13.83,13.83,0,0,1,1.13-1.45Z" transform="translate(1 0)"/><path class="cls-22" d="M792.48,547.29l-9.07-9.87a17.37,17.37,0,0,1,1.79-.86,19.84,19.84,0,0,1,1.88-.65Z" transform="translate(1 0)"/><path class="cls-22" d="M786.75,561.79l-14-3.74a13,13,0,0,1,.91-1.57,12.86,12.86,0,0,1,1.13-1.45Z" transform="translate(1 0)"/><path class="cls-22" d="M785.88,561.41l-9.07-9.87a15.53,15.53,0,0,1,1.79-.86,16.66,16.66,0,0,1,1.88-.65Z" transform="translate(1 0)"/><path class="cls-22" d="M780.15,575.9l-14-3.73a11.94,11.94,0,0,1,.91-1.58,15.19,15.19,0,0,1,1.12-1.45Z" transform="translate(1 0)"/><path class="cls-22" d="M779.28,575.52l-9.07-9.87a19.71,19.71,0,0,1,1.79-.86,16,16,0,0,1,1.88-.64Z" transform="translate(1 0)"/><path class="cls-22" d="M775.2,588.45l-14-3.73a11.94,11.94,0,0,1,.91-1.58,13.72,13.72,0,0,1,1.12-1.45Z" transform="translate(1 0)"/><path class="cls-22" d="M774.33,588.07l-9.07-9.87a16.43,16.43,0,0,1,1.79-.86,18.07,18.07,0,0,1,1.88-.65Z" transform="translate(1 0)"/><path class="cls-22" d="M771.89,601l-14-3.73a11.94,11.94,0,0,1,.91-1.58,12.77,12.77,0,0,1,1.12-1.45Z" transform="translate(1 0)"/><path class="cls-22" d="M771,600.62,762,590.75a15.67,15.67,0,0,1,1.8-.86,16,16,0,0,1,1.88-.65Z" transform="translate(1 0)"/><path class="cls-21" d="M957.79,445a4.15,4.15,0,0,0-5.08,2.38l-67.93,153.8a3.59,3.59,0,0,0,1.85,5,4.15,4.15,0,0,0,5.08-2.38l67.93-153.81A3.58,3.58,0,0,0,957.79,445Z" transform="translate(1 0)"/><path class="cls-22" d="M954.38,454.66l-12.49-3.21a10.59,10.59,0,0,1,.81-1.36,12.92,12.92,0,0,1,1-1.24Z" transform="translate(1 0)"/><path class="cls-22" d="M953.61,454.34l-8.1-8.49a13.74,13.74,0,0,1,1.6-.74,17.41,17.41,0,0,1,1.68-.56Z" transform="translate(1 0)"/><path class="cls-22" d="M948.31,467.77l-12.49-3.21a10.49,10.49,0,0,1,.81-1.35,11.76,11.76,0,0,1,1-1.25Z" transform="translate(1 0)"/><path class="cls-22" d="M947.54,467.45l-8.1-8.49a16.67,16.67,0,0,1,1.6-.74,17.41,17.41,0,0,1,1.68-.56Z" transform="translate(1 0)"/><path class="cls-22" d="M942.42,481.26l-12.49-3.21a10,10,0,0,1,.81-1.36,11.79,11.79,0,0,1,1-1.24Z" transform="translate(1 0)"/><path class="cls-22" d="M941.65,480.93l-8.1-8.48a12.27,12.27,0,0,1,1.6-.74,15,15,0,0,1,1.68-.56Z" transform="translate(1 0)"/><path class="cls-22" d="M936.53,493.39,924,490.18a10.49,10.49,0,0,1,.81-1.35,11.65,11.65,0,0,1,1-1.25Z" transform="translate(1 0)"/><path class="cls-22" d="M935.76,493.07l-8.1-8.49a15.62,15.62,0,0,1,1.6-.74,15,15,0,0,1,1.68-.55Z" transform="translate(1 0)"/><path class="cls-22" d="M930.64,505.53l-12.49-3.21A10.59,10.59,0,0,1,919,501a11.55,11.55,0,0,1,1-1.24Z" transform="translate(1 0)"/><path class="cls-22" d="M929.86,505.2l-8.09-8.48a13.59,13.59,0,0,1,1.59-.74,16.54,16.54,0,0,1,1.68-.56Z" transform="translate(1 0)"/><path class="cls-22" d="M924.75,519l-12.5-3.2a12.5,12.5,0,0,1,.81-1.36,11.76,11.76,0,0,1,1-1.25Z" transform="translate(1 0)"/><path class="cls-22" d="M924,518.69l-8.1-8.49a16.67,16.67,0,0,1,1.6-.74,15,15,0,0,1,1.68-.55Z" transform="translate(1 0)"/><path class="cls-22" d="M920.33,531.15l-12.5-3.21a13.53,13.53,0,0,1,.81-1.36,13,13,0,0,1,1-1.24Z" transform="translate(1 0)"/><path class="cls-22" d="M919.55,530.83l-8.1-8.49a14.55,14.55,0,0,1,1.6-.74c.54-.21,1.11-.4,1.68-.56Z" transform="translate(1 0)"/><path class="cls-22" d="M914.43,543.29l-12.49-3.21a10,10,0,0,1,.81-1.36,10.73,10.73,0,0,1,1-1.24Z" transform="translate(1 0)"/><path class="cls-22" d="M913.66,543l-8.1-8.48a12.27,12.27,0,0,1,1.6-.74,15,15,0,0,1,1.68-.56Z" transform="translate(1 0)"/><path class="cls-22" d="M908.54,556.77l-12.49-3.21a10.59,10.59,0,0,1,.81-1.36,12.92,12.92,0,0,1,1-1.24Z" transform="translate(1 0)"/><path class="cls-22" d="M907.77,556.45l-8.1-8.49a15.62,15.62,0,0,1,1.6-.74,17.41,17.41,0,0,1,1.68-.56Z" transform="translate(1 0)"/><path class="cls-22" d="M902.65,568.91l-12.49-3.21a10,10,0,0,1,.81-1.36,11.55,11.55,0,0,1,1-1.24Z" transform="translate(1 0)"/><path class="cls-22" d="M901.88,568.58l-8.1-8.48a12.27,12.27,0,0,1,1.6-.74,15,15,0,0,1,1.68-.56Z" transform="translate(1 0)"/><path class="cls-22" d="M896.76,581l-12.5-3.21a11.86,11.86,0,0,1,.82-1.35,11.65,11.65,0,0,1,1-1.25Z" transform="translate(1 0)"/><path class="cls-22" d="M896,580.72l-8.1-8.49a16.67,16.67,0,0,1,1.6-.74,16.48,16.48,0,0,1,1.68-.55Z" transform="translate(1 0)"/><path class="cls-22" d="M892.34,591.83l-12.49-3.21a10.59,10.59,0,0,1,.81-1.36,12.63,12.63,0,0,1,1-1.24Z" transform="translate(1 0)"/><path class="cls-22" d="M891.56,591.51,883.47,583a15.44,15.44,0,0,1,1.59-.74c.55-.21,1.11-.4,1.68-.56Z" transform="translate(1 0)"/><path class="cls-22" d="M889.39,602.62l-12.49-3.21a10.59,10.59,0,0,1,.81-1.36,12.92,12.92,0,0,1,1-1.24Z" transform="translate(1 0)"/><path class="cls-22" d="M888.62,602.29l-8.1-8.48a13.74,13.74,0,0,1,1.6-.74,15,15,0,0,1,1.68-.56Z" transform="translate(1 0)"/><path class="cls-21" d="M989.09,453.08a3.52,3.52,0,0,0-4.41,2.25L925.74,600.45a3.27,3.27,0,1,0,6,2.42l58.94-145.12A3.51,3.51,0,0,0,989.09,453.08Z" transform="translate(1 0)"/><path class="cls-22" d="M986.13,462.21l-10.84-3a10,10,0,0,1,.7-1.28,10.74,10.74,0,0,1,.87-1.17Z" transform="translate(1 0)"/><path class="cls-22" d="M985.46,461.9l-7-8a11.16,11.16,0,0,1,1.38-.7,15,15,0,0,1,1.46-.53Z" transform="translate(1 0)"/><path class="cls-22" d="M980.86,474.58l-10.84-3a11,11,0,0,1,1.58-2.45Z" transform="translate(1 0)"/><path class="cls-22" d="M980.19,474.27l-7-8a13.89,13.89,0,0,1,1.39-.7A14.06,14.06,0,0,1,976,465Z" transform="translate(1 0)"/><path class="cls-22" d="M975.75,487.3l-10.84-3a10.6,10.6,0,0,1,.7-1.28,12.35,12.35,0,0,1,.87-1.18Z" transform="translate(1 0)"/><path class="cls-22" d="M975.08,487l-7-8a12.9,12.9,0,0,1,1.39-.7,14,14,0,0,1,1.46-.52Z" transform="translate(1 0)"/><path class="cls-22" d="M970.64,498.76l-10.84-3a9.37,9.37,0,0,1,.7-1.28,10.85,10.85,0,0,1,.87-1.18Z" transform="translate(1 0)"/><path class="cls-22" d="M970,498.45l-7-8a12,12,0,0,1,1.39-.7,13.84,13.84,0,0,1,1.45-.52Z" transform="translate(1 0)"/><path class="cls-22" d="M965.52,510.21l-10.83-3a9.37,9.37,0,0,1,.7-1.28,10.85,10.85,0,0,1,.87-1.18Z" transform="translate(1 0)"/><path class="cls-22" d="M964.85,509.9l-7-8a12.74,12.74,0,0,1,1.38-.7,14,14,0,0,1,1.46-.52Z" transform="translate(1 0)"/><path class="cls-22" d="M960.41,522.93l-10.84-3a10.08,10.08,0,0,1,.71-1.28,10.74,10.74,0,0,1,.87-1.17Z" transform="translate(1 0)"/><path class="cls-22" d="M959.74,522.62l-7-8a12,12,0,0,1,1.39-.7,14.06,14.06,0,0,1,1.46-.53Z" transform="translate(1 0)"/><path class="cls-22" d="M956.58,534.38l-10.84-3a12.36,12.36,0,0,1,.7-1.28,10.74,10.74,0,0,1,.87-1.17Z" transform="translate(1 0)"/><path class="cls-22" d="M955.91,534.07l-7-8a12,12,0,0,1,1.39-.7,13.88,13.88,0,0,1,1.45-.53Z" transform="translate(1 0)"/><path class="cls-22" d="M951.47,545.83l-10.84-3a10.73,10.73,0,0,1,.7-1.28,11.8,11.8,0,0,1,.87-1.17Z" transform="translate(1 0)"/><path class="cls-22" d="M950.79,545.53l-7-8a12.74,12.74,0,0,1,1.38-.7,14.06,14.06,0,0,1,1.46-.53Z" transform="translate(1 0)"/><path class="cls-22" d="M946.35,558.56l-10.84-3a10.67,10.67,0,0,1,.71-1.28,10.85,10.85,0,0,1,.87-1.18Z" transform="translate(1 0)"/><path class="cls-22" d="M945.68,558.25l-7-8a12.74,12.74,0,0,1,1.38-.7,14,14,0,0,1,1.46-.52Z" transform="translate(1 0)"/><path class="cls-22" d="M941.24,570l-10.84-3a9.44,9.44,0,0,1,.71-1.28,10.85,10.85,0,0,1,.87-1.18Z" transform="translate(1 0)"/><path class="cls-22" d="M940.57,569.7l-7-8a12.9,12.9,0,0,1,1.39-.7,14,14,0,0,1,1.46-.52Z" transform="translate(1 0)"/><path class="cls-22" d="M936.13,581.46l-10.84-3a10.6,10.6,0,0,1,.7-1.28,10.85,10.85,0,0,1,.87-1.18Z" transform="translate(1 0)"/><path class="cls-22" d="M935.46,581.15l-7-8a12.9,12.9,0,0,1,1.39-.7,13.84,13.84,0,0,1,1.45-.52Z" transform="translate(1 0)"/><path class="cls-22" d="M932.29,591.64l-10.83-3a9.37,9.37,0,0,1,.7-1.28,10.85,10.85,0,0,1,.87-1.18Z" transform="translate(1 0)"/><path class="cls-22" d="M931.62,591.33l-7-8a12.74,12.74,0,0,1,1.38-.7,14,14,0,0,1,1.46-.52Z" transform="translate(1 0)"/><path class="cls-22" d="M929.74,601.81l-10.84-3a10.6,10.6,0,0,1,.7-1.28,10.85,10.85,0,0,1,.87-1.18Z" transform="translate(1 0)"/><path class="cls-22" d="M929.07,601.51l-7-8a12.9,12.9,0,0,1,1.39-.7,13.84,13.84,0,0,1,1.45-.52Z" transform="translate(1 0)"/><rect class="cls-23" x="2" y="966.28" width="1918" height="112.67"/></svg>