<svg xmlns="http://www.w3.org/2000/svg" viewBox="0 0 271 211.37"><defs><style>.cls-1,.cls-4{fill:#466159;}.cls-1,.cls-2,.cls-3,.cls-4,.cls-5{stroke:#1d1d1b;stroke-miterlimit:10;}.cls-1{stroke-width:2.45px;}.cls-2{fill:#fff;}.cls-2,.cls-3,.cls-4,.cls-5{stroke-width:2.74px;}.cls-3,.cls-7{fill:#638b79;}.cls-5{fill:none;}.cls-6{fill:#1d1d1b;}</style></defs><g id="Layer_2" data-name="Layer 2"><g id="Layer_1-2" data-name="Layer 1"><path class="cls-1" d="M139.47,122.23l-45-1.12c.58-25.78,20.72-46.66,45-46.66,24.71,0,45,21.57,45,47.78v.85Z"/><path class="cls-2" d="M117.51,119.07a74.59,74.59,0,0,0,24,7.12c1.7.21,23.51,2.68,25.91-3.56,1.28-3.32-3.44-7.84-4.13-8.52-3.83-3.74-8.76-4.57-11-5.06-9.3-2-21.27.28-29.22-4.91-11.53-7.52-17.48-18.56-31.17-20.47-11.57-1.61-21.79,3.17-33.43,4.17-8.34.73-17.67-3.21-26-2.11l.64,10.09c-.2,16,.82,27.88.63,43.92,25.39.42,52.39-5.15,76.31,2.84,26.43,8.82,51.94,5.52,75.26-5.2a28.1,28.1,0,0,0,3.86-2.16c2-1.35,5.16-3.43,7-6.75.44-.8,4.07-7.37.31-11.77a10.31,10.31,0,0,0-9.16-3.07,10,10,0,0,0-1.18.29,34.29,34.29,0,0,0-9.25,4.56c-5,3.31-10.5,6.24-10.75,5.93-.07-.1.33-.59,2.53-2.37"/><path class="cls-3" d="M109,29.26c-2.2-4.82-1.47-9.59,0-19.12,1-6.26,2.14-7.75,3.49-8.43,1.12-.55,3.39-1.07,12.53,3.87,7.74,4.19,11.61,6.29,13.63,9,5.92,8.05,5.16,23.3-3.49,27.55S113.19,38.38,109,29.26Z"/><path class="cls-4" d="M155.68,14.19c4.3-3.35,9.38-4,19.53-5.41,6.67-.91,8.52-.28,9.59.75.89.85,2.06,2.75-.4,12.38-2.09,8.16-3.13,12.24-5.36,14.83C172.5,44.36,156.71,48,149.92,41.4S147.55,20.54,155.68,14.19Z"/><path class="cls-5" d="M141.84,74.45a37.91,37.91,0,0,0,.64-23.15,40.32,40.32,0,0,0-13.91-20.18"/><path class="cls-5" d="M144.37,74.45a46.31,46.31,0,0,1,2.53-23.74,48.77,48.77,0,0,1,12-17.81"/><text/><path class="cls-6" d="M78.11,160.22a53.1,53.1,0,0,1-7.93,15.17q-7.41,10.35-13.81,9.1a9.4,9.4,0,0,1-2.3-.75c-.81-.36-1.14-.66-1-.91a14.72,14.72,0,0,1-4.92-3.51,6.82,6.82,0,0,1-.91-5.87,36.49,36.49,0,0,1,6.86-14q4.27-5.65,7.65-7.67a3.32,3.32,0,0,1,2.43-.61,4.45,4.45,0,0,1,1.93,1.07c.26.22,1,1,2.35,2.42a19.53,19.53,0,0,1,3.68-2.22,2.8,2.8,0,0,1,1.7-.15,3.42,3.42,0,0,1,2.23,2,6.07,6.07,0,0,1,2.42,1.12,2.36,2.36,0,0,1,.32,2.09Q78.66,158.39,78.11,160.22Zm-2.75-2.77c.3-1.18.14-1.85-.49-2a4.51,4.51,0,0,0-2.46.55,69.39,69.39,0,0,0-9.5,5.07,1.58,1.58,0,0,1-1.07.33.34.34,0,0,1-.33-.46,1.72,1.72,0,0,1,.53-.83,39.14,39.14,0,0,1,5.25-4.68,4.06,4.06,0,0,0-2-1.46,1.6,1.6,0,0,0-1.1.12q-3,1.32-7.52,7.23-5.4,7-6.24,13a7.85,7.85,0,0,0,.23,3.9,7.13,7.13,0,0,0,2.13,2.62,5.39,5.39,0,0,0,2.71,1.27q4.91.62,11.38-7.77A47,47,0,0,0,75.36,157.45Z"/><path class="cls-6" d="M90.63,171.36a21.34,21.34,0,0,1-1.56,6c-.25.56-.52.82-.82.77s-.68-.43-1.36-1.2a1.23,1.23,0,0,1-.12-1.43A12.7,12.7,0,0,0,87.86,172c0-.31,0-.48-.13-.5s-.54.22-1,.74a45.29,45.29,0,0,0-9.18,13.68q-1.1,2.49-1.65,2.4a10.76,10.76,0,0,1-1.78-1.14,1.33,1.33,0,0,1-.35-1.69,107.81,107.81,0,0,1,5.76-13.61,28.34,28.34,0,0,0-2.56,2.27.57.57,0,0,1-.56.21c-.27,0-.39-.18-.36-.43a.86.86,0,0,1,.25-.45c.9-.84,2.11-2.15,3.65-3.91.48-.66.92-1,1.32-.89a5.5,5.5,0,0,1,1.66.94c.46.34.49.7.11,1.09a26.83,26.83,0,0,0-2.58,4.69q-1.87,4-2.69,6.24a67,67,0,0,1,8.93-11.91c.61-.64,1.07-.93,1.39-.88a2.28,2.28,0,0,1,1.09.76,3.21,3.21,0,0,1,1.23.51A1.41,1.41,0,0,1,90.63,171.36Z"/><path class="cls-6" d="M107.83,174Q97.81,212.4,86,211.34q-4.25-.36-8.85-5.58a1.3,1.3,0,0,1-.39-.94c0-.48.26-.69.69-.66a1,1,0,0,1,.63.33c2.45,2.5,4.71,3.83,6.77,4q9.87.87,18.49-28.22a50.32,50.32,0,0,1-7.67,9.46,3.18,3.18,0,0,1-2.21,1.07,3.88,3.88,0,0,1-2.07-1.17,3.83,3.83,0,0,1-1.92-4,21.4,21.4,0,0,1,3-7.76,24.16,24.16,0,0,1,5.13-6.58,3.77,3.77,0,0,1,2.56-1.11,3.28,3.28,0,0,1,1.75.89L103.7,173a.91.91,0,0,1,.32.67c0,.29-.22.42-.61.39a2,2,0,0,1-.8-.29,3,3,0,0,0-1.38-.52,2.66,2.66,0,0,0-1.87.58,19,19,0,0,0-4,4.78,21.82,21.82,0,0,0-3,6.84,10.85,10.85,0,0,0-.22,1.48c-.08,1.21.2,1.84.84,1.9a2,2,0,0,0,1.41-.54,29.49,29.49,0,0,0,6.15-6.74,35.51,35.51,0,0,0,4.26-7.7,8.39,8.39,0,0,0,.58-2.44c0-.62.2-.92.49-.89a4.41,4.41,0,0,1,1.7,1.18A2.13,2.13,0,0,1,107.83,174Z"/><path class="cls-6" d="M127,175.38a80.48,80.48,0,0,0-3.18,10.47,10.85,10.85,0,0,0,1-1,7.9,7.9,0,0,1,.74-.82.93.93,0,0,1,.73-.44c.24,0,.35.13.35.38a1,1,0,0,1-.2.51,20.3,20.3,0,0,0-3.09,6.86c-.15.66-.37,1-.66,1a3.77,3.77,0,0,1-1.5-.81,2,2,0,0,1-.74-.75,2.27,2.27,0,0,1,0-1.08,56.16,56.16,0,0,1,2.65-10.34,59.28,59.28,0,0,1-5.79,7.58,33.63,33.63,0,0,1-4.6,4.6,3.06,3.06,0,0,1-1.55.69,2.59,2.59,0,0,1-1.31-.73,2.46,2.46,0,0,1-1.25-2.18,3.69,3.69,0,0,1,.06-.62,23.62,23.62,0,0,1,3.22-8.42,34.1,34.1,0,0,1,6.28-8.05,3,3,0,0,1,2-1c.58.05,1.66.84,3.26,2.39a.55.55,0,0,1,.22.42q0,.39-.51.39a1.05,1.05,0,0,1-.36-.08,2.61,2.61,0,0,0-2.74,0,23.41,23.41,0,0,0-5.08,5.9,23.94,23.94,0,0,0-3.92,8.79,1.82,1.82,0,0,0,0,.32c0,.41.15.62.47.62a3.06,3.06,0,0,0,2-1.12,64.17,64.17,0,0,0,5.85-6.65,34.2,34.2,0,0,0,4.12-6.28c.44-1,.73-1.77.86-2.2.22-.73.45-1.1.69-1.1a4.73,4.73,0,0,1,1.67,1,1.31,1.31,0,0,1,.59.77A2.35,2.35,0,0,1,127,175.38Z"/><path class="cls-6" d="M148.32,181.9c-.89,1.54-2,3.78-3.44,6.7-.26.75-.5,1.51-.74,2.26-.2.52-.49.79-.85.81a3.49,3.49,0,0,1-1.29-.29c-.64-.23-1-.47-1-.73a2.5,2.5,0,0,1,.28-.78,44.17,44.17,0,0,0,2.41-8.24,26.45,26.45,0,0,0,.77-7.83c-.07-.72-.24-1.07-.53-1.05s-.51.24-.91.67a52.83,52.83,0,0,0-9.72,16.77c-.32.86-.74,1.3-1.23,1.33a4.65,4.65,0,0,1-1.78-.51c-.33-.13-.51-.26-.53-.39a4.28,4.28,0,0,1,.23-.7,60.69,60.69,0,0,0,2.4-8.07,43.12,43.12,0,0,0,1.28-8.17c0-.59,0-.89-.09-.88a7.86,7.86,0,0,0-.64.7c-.41.47-1,1.07-1.72,1.82a.65.65,0,0,1-.47.25c-.23,0-.34-.07-.35-.25a.67.67,0,0,1,.22-.45q1-1.41,2.56-3.53a1,1,0,0,1,.72-.46c.39,0,.73.24,1.05.8,1.31.32,1.95.89,1.91,1.71a52.38,52.38,0,0,1-2.26,9.91,44.36,44.36,0,0,1,4.35-7.36c1.93-2.73,3.37-4.37,4.35-4.9a2.9,2.9,0,0,1,1-.4,2,2,0,0,1,1,.48c1.35.39,2,1.14,2.08,2.24a31,31,0,0,1-.56,5.57c-.34,2.12-.66,3.77-1,4.95.44-.63,1-1.45,1.67-2.46a.53.53,0,0,1,.37-.27c.24,0,.37.14.38.45A.77.77,0,0,1,148.32,181.9Z"/><path class="cls-6" d="M157.32,172.79a103.92,103.92,0,0,1-2,11.32,17.06,17.06,0,0,0,1.7-2.54.44.44,0,0,1,.31-.26c.26,0,.31.2.16.67-.06.19-.63,1.39-1.7,3.59a25,25,0,0,0-1.73,4.4.82.82,0,0,1-.74.65,3.4,3.4,0,0,1-1.6-.38c-.44-.18-.66-.33-.67-.44a2.07,2.07,0,0,1,.2-.67,42.5,42.5,0,0,0,2.17-8.11,44.8,44.8,0,0,0,1-8c0-.74-.12-1.1-.32-1.08s-.38.23-.71.63L152,174.12c-.48.55-.74.6-.78.16a1,1,0,0,1,.17-.51,34.39,34.39,0,0,1,2.12-3.34,1.12,1.12,0,0,1,.7-.5,2.24,2.24,0,0,1,1.17.41,8.68,8.68,0,0,1,1.25.23,1.33,1.33,0,0,1,.67,1.2A5.77,5.77,0,0,1,157.32,172.79Zm2.39-11.1a.81.81,0,0,1,.45.61c0,.48-.58,1.29-1.86,2.44a3.41,3.41,0,0,1-2.57,1,3,3,0,0,1-1.29-.39,1.24,1.24,0,0,1-.28-.28.26.26,0,0,1-.06-.25c0-.07.14-.1.28-.09a30.85,30.85,0,0,0,2.64-3.14c.33-.47.57-.71.73-.73A4.88,4.88,0,0,1,159.71,161.69Z"/><path class="cls-6" d="M172.82,169a15.65,15.65,0,0,1-.25,6.25.86.86,0,0,1-1.28.65c-.95-.36-1.45-.7-1.49-1a.67.67,0,0,1,.25-.51,10.46,10.46,0,0,0,.28-3.74c-.13-.73-.53-1-1.21-.93a1.11,1.11,0,0,1-.37,0h-.38c-.56.09-1.17.74-1.85,1.94a22.38,22.38,0,0,0-1.91,5.42,26.9,26.9,0,0,0-.75,4.77,12.94,12.94,0,0,0,0,2.52c.31,2.48,1.24,3.58,2.77,3.28q2-.37,5.27-6.14.31-.53.63-.57c.21,0,.33.08.36.34a1.19,1.19,0,0,1-.06.5,20.9,20.9,0,0,1-2.6,6.11,2.24,2.24,0,0,1-1.68.89,6.75,6.75,0,0,1-1.9,0,5.18,5.18,0,0,1-3.68-.87,4.48,4.48,0,0,1-1.77-3.41,26.1,26.1,0,0,1,.86-7.44,24.27,24.27,0,0,1,2.82-7.81c.52-.78,1-1.2,1.39-1.27a6.54,6.54,0,0,1,2.57.68,5.66,5.66,0,0,1,1.88-.67C172,167.75,172.7,168.1,172.82,169Z"/><path class="cls-7" d="M228.33,139.26a.4.4,0,0,1,.24.28c.08.32-.13.55-.62.71a3.63,3.63,0,0,1-.44.08,2.66,2.66,0,0,0-.47.1c-.72.23-1.28,1.18-1.66,2.87q-2.3,10.37-.37,24.13c.18-.79.43-1.85.74-3.17.08-.4.25-.64.49-.72s.49.06.59.46a1.68,1.68,0,0,1,0,.71,40,40,0,0,0-.12,7.67c0,.72-.19,1.16-.66,1.3a4.61,4.61,0,0,1-2.68-.48,2.44,2.44,0,0,1-1.12-.67,3,3,0,0,1-.31-1.38q-.45-5.4-.71-12.26c-.2-5.23-.17-8.36.07-9.39a92.07,92.07,0,0,0-3.84,10.5q-2.1,6.67-3.44,12.54a8,8,0,0,1,1,2.06c.15.61-.16,1.56-.95,2.84-.4.67-.68,1-.85,1.09s-.78-.44-1.84-1.47a2.7,2.7,0,0,1-.8-1.12,6,6,0,0,1,.28-1.82,76.09,76.09,0,0,0-8.79-12.05q-.92,7.23-2.17,13.34c1.43.93,2.2,1.62,2.3,2.06s-.24.69-1,1a6.55,6.55,0,0,0-3.44,3.84c0,.51-.15.83-.52.95a4.64,4.64,0,0,1-2.78-.68c-.42-.2-.65-.39-.69-.58a1.11,1.11,0,0,1,.25-.77,33,33,0,0,1,2.89-3.76,88.32,88.32,0,0,0,3.21-17.6q-4.39-5.46-9.2-6.65a2.57,2.57,0,0,0-1.43,0,3.15,3.15,0,0,0-1.62,1.5c-.44.85-.88,1.71-1.31,2.58a1.6,1.6,0,0,1-.89.92.37.37,0,0,1-.53-.29,1.31,1.31,0,0,1,0-.55q1.55-7.4,4.42-8.17,3.41-.94,10.89,5.82a15.19,15.19,0,0,0-.06-6c-.21-.86-.19-1.32.06-1.4a4.39,4.39,0,0,1,1.87.51q.45.19.66,1.17.27,1.25-.38,7.85A96.51,96.51,0,0,1,212.48,170a184.23,184.23,0,0,1,9.35-26.29,28,28,0,0,1,1.06-4.37,1.66,1.66,0,0,1,1-1.19C224.65,138,226.11,138.32,228.33,139.26Z"/><path class="cls-7" d="M242.92,157.89q-3,9.51-5.19,10.49a4.49,4.49,0,0,1-3.18-.31c-1.3,0-2.11-.52-2.42-1.42a3.05,3.05,0,0,1-.14-.54,42.32,42.32,0,0,1-.77-7.66c-.65,0-1-.2-1.11-.46s0-.39.36-.53a1.65,1.65,0,0,1,.81-.12,33.45,33.45,0,0,1,1.33-8.08,3.3,3.3,0,0,1,1.41-2.1,7.25,7.25,0,0,1,2.11-.16c-.23-.43-.19-.75.11-1l1-.46c.64-.29,1-.31,1.08-.08a2.31,2.31,0,0,1,.07.41,2.67,2.67,0,0,0,.14.63c.19.55.43,1.22.73,2s.49,1.34.58,1.61c.66,1.9.61,3.44-.15,4.64a6.11,6.11,0,0,1-2.78,2.4,16.47,16.47,0,0,1-3.22.84,14.52,14.52,0,0,0,.11,3.15,19.06,19.06,0,0,0,1,4.88c.29.79.67,1.07,1.15.86a2.39,2.39,0,0,0,.65-.44c1.51-1.39,3.26-4.35,5.25-8.91a1,1,0,0,1,.48-.55c.28-.12.47,0,.57.23A1,1,0,0,1,242.92,157.89Zm-6.12-9c-.21-.59-.44-.84-.69-.72a1.66,1.66,0,0,0-.59.68q-1.58,2.77-1.66,8c.32-.09.86-.27,1.62-.56a4.1,4.1,0,0,0,2.42-2,3.84,3.84,0,0,0-.05-2.59Q238.18,152.93,236.8,148.92Z"/><text/><text/><text/><text/><text/><text/></g></g></svg>