<svg xmlns="http://www.w3.org/2000/svg" viewBox="0 0 289.57 271.55"><defs><style>.cls-1{fill:#466159;}</style></defs><g id="Layer_2" data-name="Layer 2"><g id="Layer_1-2" data-name="Layer 1"><path class="cls-1" d="M170.34,112.51c-25.56,47.73-56.13,88.67-6.77,139.3l-20.3-15.1C100.31,185.65,108.32,144.79,170.34,112.51Z"/><path class="cls-1" d="M238.91,268.57c-8.16,4.86-26,2.46-33.36,1.82-9-.83-18.13,0-27.19,0-40.38-.69-73.58,2-84.65-5.46-5-4.76-3.91-11.11-3.71-12.29,3.61-18.83,34.84-20,44.49-16.84,8.42,1.71,8.47,3.82,14.83,4.09,9.22.4,12-3.91,24.1-6.82,23.66-4.6,49.06-1.49,59.93,15.47C235.23,251.21,244.46,264.37,238.91,268.57Z"/><path class="cls-1" d="M200.09,152.7a328.07,328.07,0,0,0-43.21,16.92c-12.61,7.62-28.47,10-30.62,24,19.45-3.95,21.26-8.72,34.69-15.9C175.86,171.71,188.45,165.93,200.09,152.7Z"/><path class="cls-1" d="M143.52,92l-1,19.8c-2.54-.52-16-3.46-20.4-12.6-1.4-2.92.13-8,2.91-18,2.53-9.11,4-10.72,6-11.32,2.93-.88,5.76.81,15.5,5.64,16,8,16.75,7.41,18.28,9.28,7.44,9.1-1.74,20.75-3,22.28Z"/><path class="cls-1" d="M74.05,109.57l14.33,16.76c-2.49.62-15.88,3.78-26.48-2-3.39-1.83-6-6.64-11.35-16.09-4.87-8.58-4.87-10.53-3.67-11.85,1.75-1.94,5.37-1.72,17.11-1.76,19.33-.08,19.52-.82,22.21.09,13.1,4.45,14.4,17.87,14.54,19.66Z"/><path class="cls-1" d="M219.13,84.3l-23.62,9.47c-.68-1.88-4.11-11.92,4.35-19.35,2.69-2.37,9.37-4,22.51-7.31,11.93-3,14.58-2.92,16.29-2,2.51,1.41,2,4.06,1.29,12.7-1.13,14.21-.14,14.4-1.55,16.32-6.85,9.34-25.12,9.45-27.55,9.44Z"/><path class="cls-1" d="M226.93,140.6l-26.74-2.07a26.18,26.18,0,0,1,18.47-14.12c4.05-.83,10.78.64,24.17,3.38,12.17,2.48,14.25,3.69,14.92,5.2,1,2.21-1.49,4.17-8.7,11-11.88,11.24-11.2,11.8-13.84,12.8-12.84,4.83-28-2.72-30-3.74Z"/><path class="cls-1" d="M76.78,168.24,101,176.9c-1.67,1.5-10.78,9.39-23.9,8.63-4.19-.24-9.84-3.31-21.15-9.25-10.29-5.4-11.69-7.06-11.62-8.64.11-2.33,3.34-3.55,13.28-8.15,16.37-7.58,16-8.28,18.94-8.55,14.3-1.32,25,9.58,26.42,11Z"/><path class="cls-1" d="M173.54,66.23,164.59,78.5c-1.38-1.41-8.63-9-7.53-16.73.35-2.47,3.44-5.05,9.42-10.29,5.44-4.76,7.06-5.16,8.56-4.7,2.22.69,3.29,3,7.39,10.2,6.74,11.9,7.42,11.86,7.6,13.71.84,9-9.85,12.54-11.28,13Z"/><path class="cls-1" d="M96.89,78.25l1.59,13.88c-1.92-.09-12.16-.67-16.43-6.56-1.37-1.88-.83-5.56,0-12.84.8-6.62,1.71-7.9,3.11-8.53,2.05-.93,4.32-.07,12,2.24,12.69,3.79,13.16,3.34,14.5,4.48,6.51,5.53,1.12,14.63.38,15.83Z"/><path class="cls-1" d="M245.47,112.59l-16.22-.89a16.89,16.89,0,0,1,11.52-8.32c2.48-.52,6.54.25,14.63,1.68,7.35,1.29,8.59,2,9,2.82.55,1.26-1,2.42-5.52,6.42-7.45,6.58-7.05,6.9-8.67,7.5-7.91,2.91-17-1.25-18.15-1.82Z"/><path class="cls-1" d="M183.92,127.37l-15.71,3.11a12.74,12.74,0,0,1,7.14-10.65c2.11-1.1,6.29-1.36,14.57-2,7.51-.56,9-.23,9.73.49,1.08,1,.14,2.52-2.33,7.39-4.08,8-3.56,8.23-4.82,9.19-6.16,4.68-16.57,3-17.94,2.71Z"/><path class="cls-1" d="M116.53,129.54l6.23,9.28c-1.37.47-8.7,2.93-13.84,0-1.65-.94-2.63-3.67-4.7-9-1.89-4.86-1.73-6-1-6.85,1.08-1.22,3-1.25,9.19-1.79,10.23-.89,10.38-1.34,11.73-.91,6.57,2,6.18,9.93,6.11,11Z"/><path class="cls-1" d="M31,137.43l19.67,13.51c-2.19,1.07-14,6.64-26.28,3.09-3.91-1.13-8.09-5.29-16.55-13.41C.19,133.24-.49,131.36.21,129.85c1-2.2,4.6-2.67,15.93-4.93,18.67-3.71,18.59-4.46,21.51-4.09,14.2,1.83,20.13,14.56,20.88,16.26Z"/><path class="cls-1" d="M120.87,40.81l-1,19.8c-2.54-.52-16-3.46-20.4-12.6-1.4-2.92.13-8,2.91-18,2.52-9.11,4-10.73,6-11.32,2.93-.88,5.76.8,15.5,5.63,16,8,16.75,7.42,18.28,9.29,7.43,9.1-1.74,20.74-3,22.28Z"/><path class="cls-1" d="M196.22,196.4l-14.06-18.11c2.48-.42,15.8-2.43,26.27,4.26,3.34,2.14,5.87,7.21,11.1,17.18,4.75,9.06,4.73,11,3.53,12.25-1.76,1.8-5.35,1.26-17,.29-19.19-1.6-19.38-.87-22.05-2-12.95-5.61-14.12-19.24-14.24-21.05Z"/><path class="cls-1" d="M220,41.07l-23.62,9.47c-.68-1.87-4.11-11.92,4.35-19.35,2.69-2.37,9.37-4,22.51-7.31,11.93-3,14.58-2.91,16.29-1.95,2.51,1.42,2,4.06,1.3,12.7C239.72,48.85,240.71,49,239.3,51c-6.85,9.34-25.12,9.45-27.54,9.44Z"/><path class="cls-1" d="M75.44,52.35l6.22,9.28c-1.36.48-8.7,2.93-13.84,0-1.64-.93-2.63-3.66-4.7-9-1.88-4.85-1.73-6-1-6.84,1.08-1.22,3-1.25,9.19-1.79,10.23-.9,10.39-1.34,11.74-.92,6.56,2,6.17,9.93,6.1,11Z"/><path class="cls-1" d="M264.88,69.54l-15.71,3.11A12.74,12.74,0,0,1,256.31,62c2.1-1.1,6.29-1.36,14.56-2,7.52-.57,9-.24,9.73.48,1.09,1,.15,2.52-2.33,7.39-4.07,8-3.55,8.23-4.82,9.19-6.15,4.68-16.56,3-17.94,2.71Z"/><path class="cls-1" d="M250,180.62l-17.09-15.29c2.37-.86,15.11-5.23,26.61-.52,3.67,1.5,7.07,6,14,14.9,6.3,8.06,6.64,10,5.68,11.41-1.41,2.09-5,2.21-16.68,3.35-19.16,1.87-19.22,2.62-22,2-13.75-3.19-17.35-16.39-17.79-18.14Z"/><path class="cls-1" d="M29.44,105.34l6.22,9.28c-1.36.48-8.7,2.93-13.84,0-1.64-.93-2.63-3.66-4.7-9-1.88-4.86-1.73-6-1-6.84,1.08-1.23,3-1.26,9.19-1.8,10.23-.89,10.39-1.33,11.74-.91,6.56,2,6.17,9.93,6.1,11Z"/><path class="cls-1" d="M170.62,22.76,159.87,40.58a15.63,15.63,0,0,1-4.79-15.75c.73-2.95,4.18-7.22,10.9-15.77,6.1-7.77,7.76-8.93,9.17-9,2.08-.18,2.77,1.94,5.67,8.38,4.78,10.61,5.45,10.27,5.33,12.29-.58,9.85-11.66,18.52-13.15,19.66Z"/><path class="cls-1" d="M271.38,152.9l-15.11-5.31a12.73,12.73,0,0,1,11.56-5.54c2.37.13,6.11,2,13.55,5.7,6.76,3.33,7.86,4.36,8.13,5.36.4,1.46-1.15,2.24-5.76,5.18-7.6,4.84-7.25,5.28-8.83,5.47-7.68.89-15.76-5.89-16.82-6.8Z"/></g></g></svg>