<svg xmlns="http://www.w3.org/2000/svg" viewBox="0 0 598.2 463.56"><defs><style>.cls-1{fill:#6ba68f;}.cls-2{fill:#85a4ad;}.cls-3{fill:#b5dfed;}.cls-4{fill:#7fc5a9;}.cls-5{fill:#c4a173;}.cls-6{fill:#92ab7d;}.cls-7{fill:#bbbd75;}.cls-8{fill:#6cc4c7;stroke-width:4px;}.cls-8,.cls-9{stroke:#466159;}.cls-10,.cls-15,.cls-16,.cls-25,.cls-8,.cls-9{stroke-miterlimit:10;}.cls-10,.cls-15,.cls-16,.cls-25,.cls-9{fill:none;}.cls-9{stroke-width:3.96px;}.cls-10{stroke:#fff;stroke-width:3px;}.cls-11{fill:#e6e3d0;}.cls-12{fill:#f0e74f;}.cls-13{fill:#1d71b8;}.cls-14{fill:#31b6b5;}.cls-15{stroke:#31b6b5;stroke-width:1.87px;}.cls-16{stroke:#7d6818;stroke-width:0.33px;}.cls-17{fill:#8ea425;}.cls-18{fill:#8d8b20;}.cls-19{fill:#713321;}.cls-20{fill:#fcd095;}.cls-21{fill:#b7d79d;}.cls-22{fill:#e7e991;}.cls-23{fill:#010101;}.cls-24{fill:#e7392a;}.cls-25{stroke:#010101;stroke-width:0.67px;}</style></defs><g id="Layer_2" data-name="Layer 2"><g id="Layer_1-2" data-name="Layer 1"><rect class="cls-1" y="213.56" width="134" height="68" rx="15.92"/><rect class="cls-2" x="379" y="353.56" width="172" height="110" rx="15.87"/><rect class="cls-3" x="355" y="314.56" width="172" height="110" rx="15.87"/><rect class="cls-4" x="38" y="189.56" width="172" height="85" rx="20.16"/><polygon class="cls-5" points="264.69 430.57 232.64 377.89 200.59 325.21 245.77 333.81 290.95 342.42 277.82 386.49 264.69 430.57"/><polygon class="cls-6" points="588.95 238.43 547.3 212.76 505.65 187.1 551.92 158.63 598.2 130.17 593.57 184.3 588.95 238.43"/><polygon class="cls-7" points="325.38 100.39 301.96 61.9 278.54 23.4 341.12 11.7 403.69 0 364.54 50.2 325.38 100.39"/><rect class="cls-8" x="133.5" y="62.06" width="416.48" height="280"/><polygon class="cls-9" points="341.03 335.57 238.01 199.71 134.99 63.85 341.5 64.21 548 64.56 444.52 200.07 341.03 335.57"/><line class="cls-10" x1="455" y1="262.56" x2="512" y2="262.56"/><line class="cls-10" x1="454" y1="284.56" x2="511" y2="284.56"/><line class="cls-10" x1="454" y1="305.56" x2="511" y2="305.56"/><line class="cls-10" x1="159" y1="263.06" x2="216" y2="263.06"/><line class="cls-10" x1="158" y1="285.06" x2="215" y2="285.06"/><line class="cls-10" x1="158" y1="306.06" x2="215" y2="306.06"/><path class="cls-11" d="M106.81,207.63c5.92-9.42-11.85-9.42-5.92,0-5.93-9.42-14.81,4.72-3,4.72-11.85,0-3,14.13,3,4.71-5.93,9.42,11.84,9.42,5.92,0,5.92,9.42,14.81-4.71,3-4.71C121.62,212.35,112.73,198.21,106.81,207.63Z"/><ellipse class="cls-12" cx="103.96" cy="211.86" rx="3.61" ry="3.51"/><ellipse class="cls-13" cx="338.99" cy="150.5" rx="25.99" ry="20.94"/><path class="cls-13" d="M381,236.9a86.4,86.4,0,0,1-48,9.25,80.39,80.39,0,0,1-31.8-9.94q4.56-22.1,9.11-44.19c5.55-8.81,16.93-14.47,29.36-14.57,13.18-.11,25.31,6.05,30.69,15.61Q375.66,215,381,236.9Z"/><path class="cls-11" d="M70,227.26c5.92-9.43-11.85-9.43-5.93,0-5.92-9.43-14.8,4.71-3,4.71-11.84,0-3,14.14,3,4.71-5.92,9.43,11.85,9.43,5.93,0,5.92,9.43,14.81-4.71,3-4.71C84.76,232,75.87,217.83,70,227.26Z"/><ellipse class="cls-12" cx="67.09" cy="231.48" rx="3.61" ry="3.51"/><path class="cls-11" d="M117,247.26c5.92-9.43-11.85-9.43-5.93,0-5.92-9.43-14.8,4.71-3,4.71-11.84,0-3,14.14,3,4.71-5.92,9.43,11.85,9.43,5.93,0,5.92,9.43,14.81-4.71,3-4.71C131.76,252,122.87,237.83,117,247.26Z"/><ellipse class="cls-12" cx="114.09" cy="251.48" rx="3.61" ry="3.51"/><path class="cls-14" d="M489.41,384.09Q476.3,389,460.88,393.8a154.63,154.63,0,0,1-9.22-32.54q12.12-4.86,21.91-9.71A188.54,188.54,0,0,0,489.41,384.09Z"/><ellipse class="cls-15" cx="480.8" cy="367.94" rx="15.44" ry="13.53" transform="matrix(0.93, -0.36, 0.36, 0.93, -100.08, 197.29)"/><polygon class="cls-14" points="470.86 354.31 453.76 363.62 454.19 356.07 470.86 354.31"/><path class="cls-14" d="M461.51,389.73l-27.26-12.89,1.15-2.38L463.81,385Z"/><polygon class="cls-14" points="436.74 376.69 425.66 378.58 430.83 367.93 436.74 376.69"/><path class="cls-11" d="M469.71,370.33c1.41-5.81-8.11-2.15-3.17,1.22-4.94-3.37-7.05,5.35-.7,2.91-6.35,2.44,1.06,7.5,2.47,1.69-1.41,5.81,8.11,2.14,3.17-1.23,4.94,3.37,7-5.34.7-2.9C478.53,369.58,471.12,364.52,469.71,370.33Z"/><ellipse class="cls-12" cx="468.66" cy="373.21" rx="1.9" ry="1.83" transform="translate(-107.77 209.95) rotate(-22.72)"/><path class="cls-16" d="M398.68,386.61a8.25,8.25,0,0,1,1.7,2.21,8.78,8.78,0,0,1,.75,4.43,19.77,19.77,0,0,1-.38,3.83"/><path class="cls-16" d="M405.47,387.34a5.88,5.88,0,0,0-2.09.86,4.89,4.89,0,0,0-1.88,2.69,6.41,6.41,0,0,0-.37,2.36"/><path class="cls-17" d="M408.18,382.6c2.72-1.23,6.82.36,6.82.36a.42.42,0,0,1,0,.07l-9.83,4.29C405.23,386.78,405.71,383.71,408.18,382.6Z"/><path class="cls-18" d="M405.16,387.32,415,383c-.06.49-.52,3.6-3,4.73-2.71,1.23-6.81-.36-6.81-.36Z"/><path class="cls-17" d="M398.37,381.94c2.1,1.82,1,5.3,1,5.3h-.09l-7.43-6.63C392.53,380.56,396.45,380.27,398.37,381.94Z"/><path class="cls-18" d="M391.84,380.62l7.43,6.63c-.63.06-4.6.36-6.54-1.31-2.1-1.83-1-5.31-1-5.31Z"/><path class="cls-19" d="M409.62,415.21H393q-1.47-9.13-2.93-18.28h22.48Z"/><rect class="cls-19" x="387.78" y="394.28" width="27.06" height="3.83"/><polygon class="cls-20" points="297.91 418.65 265.86 365.97 233.81 313.29 278.99 321.89 324.16 330.49 311.04 374.57 297.91 418.65"/><polygon class="cls-21" points="562.01 236.1 520.36 210.43 478.71 184.77 524.99 156.3 571.26 127.84 566.63 181.97 562.01 236.1"/><polygon class="cls-22" points="375.25 110.17 351.83 71.67 328.41 33.17 390.99 21.47 453.56 9.77 414.41 59.97 375.25 110.17"/><path class="cls-11" d="M535,185.26c5.92-9.43-11.85-9.43-5.93,0-5.92-9.43-14.8,4.71-3,4.71-11.84,0-3,14.14,3,4.71-5.92,9.43,11.85,9.43,5.93,0,5.92,9.43,14.81-4.71,3-4.71C549.76,190,540.87,175.83,535,185.26Z"/><ellipse class="cls-12" cx="532.09" cy="189.48" rx="3.61" ry="3.51"/><path class="cls-11" d="M294,344.26c5.92-9.43-11.85-9.43-5.93,0-5.92-9.43-14.8,4.71-3,4.71-11.84,0-3,14.14,3,4.71-5.92,9.43,11.85,9.43,5.93,0,5.92,9.43,14.81-4.71,3-4.71C308.76,349,299.87,334.83,294,344.26Z"/><ellipse class="cls-12" cx="291.09" cy="348.48" rx="3.61" ry="3.51"/><path class="cls-11" d="M385,60.26c5.92-9.43-11.85-9.43-5.93,0-5.92-9.43-14.8,4.71-3,4.71-11.84,0-3,14.14,3,4.71-5.92,9.43,11.85,9.43,5.93,0,5.92,9.43,14.81-4.71,3-4.71C399.76,65,390.87,50.83,385,60.26Z"/><ellipse class="cls-12" cx="382.09" cy="64.48" rx="3.61" ry="3.51"/><ellipse class="cls-23" cx="266.82" cy="310.24" rx="4.8" ry="5.19" transform="translate(-128.78 205.64) rotate(-34.49)"/><ellipse class="cls-24" cx="263.66" cy="316.99" rx="9.19" ry="8.15" transform="translate(-87.29 533.41) rotate(-81.91)"/><path class="cls-23" d="M264.52,317.43a57.28,57.28,0,0,1-4.23,8,59.1,59.1,0,0,1,2.94-8.7,56.18,56.18,0,0,1,4.24-8A58.61,58.61,0,0,1,264.52,317.43Z"/><path class="cls-25" d="M277.44,307.87a5,5,0,0,0-3.19-2.55,4,4,0,0,0-4.32,2.19"/><path class="cls-25" d="M264.07,298.84a5.46,5.46,0,0,1,3.61,2.5,5,5,0,0,1-.11,5.43"/><ellipse class="cls-23" cx="261.34" cy="311.36" rx="1.37" ry="1.48" transform="translate(-130.38 202.73) rotate(-34.49)"/><ellipse class="cls-23" cx="258.95" cy="316.94" rx="1.37" ry="1.48" transform="translate(-133.96 202.35) rotate(-34.49)"/><ellipse class="cls-23" cx="269.05" cy="314.25" rx="1.37" ry="1.48" transform="matrix(0.82, -0.57, 0.57, 0.82, -130.66, 207.6)"/><ellipse class="cls-23" cx="269.55" cy="319.22" rx="1.37" ry="1.48" transform="translate(-133.38 208.76) rotate(-34.49)"/><ellipse class="cls-23" cx="265.73" cy="321.97" rx="1.37" ry="1.48" transform="translate(-135.62 207.08) rotate(-34.49)"/></g></g></svg>