<svg xmlns="http://www.w3.org/2000/svg" viewBox="0 0 1793.48 1028.74"><defs><style>.cls-1{fill:#9eefe6;}.cls-2{fill:#a7e070;}.cls-3{fill:#6fe26f;}.cls-4{fill:#36b239;}.cls-5{fill:#ffe573;}.cls-6{fill:#726317;}.cls-7{fill:#724417;}.cls-8{fill:#e6e3d0;}.cls-9{fill:#f2eb46;}.cls-10{fill:#f4eed7;}.cls-11{fill:#094f05;}.cls-12{fill:#686551;}.cls-13{fill:#565442;}.cls-14{fill:#fff;}.cls-15{fill:#59990e;}.cls-16{fill:#685c4d;}.cls-17{fill:#157005;}.cls-18{fill:#77673d;}.cls-19,.cls-20,.cls-21,.cls-26,.cls-41{fill:#f6b1aa;}.cls-19{stroke:#f8bf94;stroke-width:0.84px;}.cls-19,.cls-21,.cls-26,.cls-27,.cls-29,.cls-30,.cls-37,.cls-41,.cls-42,.cls-43,.cls-44,.cls-48,.cls-49{stroke-miterlimit:10;}.cls-21{stroke:#1d1d1b;stroke-width:1.5px;}.cls-22{fill:#d66c89;}.cls-23,.cls-43,.cls-44{fill:#1d1d1b;}.cls-24{fill:#ee7c87;}.cls-25{fill:#ea5771;}.cls-26,.cls-27{stroke:#dd706d;}.cls-26{stroke-width:0.3px;}.cls-27,.cls-28{fill:#ee8081;}.cls-27{stroke-width:0.36px;}.cls-29,.cls-30,.cls-37,.cls-49{fill:none;}.cls-29{stroke:#f6b1aa;stroke-width:1.19px;}.cls-30{stroke:#925f36;stroke-width:1.38px;}.cls-31{fill:#c99d66;}.cls-32{fill:#decd84;}.cls-33{fill:#7e4e24;}.cls-34{fill:#683b11;}.cls-35{fill:#c8b684;}.cls-36{fill:#925f36;}.cls-37,.cls-42,.cls-43,.cls-44,.cls-48{stroke:#caba9f;}.cls-37{stroke-width:1.45px;}.cls-38,.cls-42{fill:#ebe4c1;}.cls-39{fill:#f29a97;}.cls-40{fill:#f5f5f5;}.cls-41{stroke:#ef8292;stroke-width:0.39px;}.cls-42{stroke-width:0.38px;}.cls-43{stroke-width:0.38px;}.cls-44{stroke-width:0.39px;}.cls-45{fill:#a3897a;}.cls-46{fill:#ececec;}.cls-47,.cls-48{fill:#fad0b4;}.cls-48{stroke-width:0.37px;}.cls-49{stroke:#7a6a58;stroke-width:0.62px;}</style></defs><g id="Layer_2" data-name="Layer 2"><g id="Layer_1-2" data-name="Layer 1"><path class="cls-1" d="M1690.08,575.47H92.15c73.12-48.62,91.36-91.38,93-123,4-78-91.27-118.67-93-213.23C91.3,193.33,112.89,155,132.5,128.79a300.53,300.53,0,0,1,40.64-43c42.43-36.8,101.72-66.94,210.05-80,177.57-21.4,324.88,22.66,357,32.68,119.07,37.2,129.62,67.66,261,98,97.56,22.53,156.3,20.63,208,7,55.23-14.57,54.65-29.94,126-62,50-22.48,221-99.34,328.22-27,25.29,17.06,41.5,38.7,51.78,56,6.46,17.94,15.13,43.92,23.35,75.78,21.13,82,31.7,123,22.65,159.22-20.89,83.72-115.81,95.73-115,158C1646.55,534,1669.74,558.85,1690.08,575.47Z"/><path class="cls-2" d="M719.32,620.93,311,618c3-118.23,186.36-214.64,408.33-214.64,224,0,408.36,98.2,408.36,217.55Z"/><path class="cls-3" d="M1281.28,638.72,873,635.81c3-118.23,186.36-214.64,408.32-214.64,224,0,408.36,98.2,408.36,217.55Z"/><path class="cls-4" d="M1689.3,946.69Q1352,920.92,1014.39,914.47q-448.78-8.57-898.24,17a138.14,138.14,0,0,1-38.6-14.19C31.8,892.09-2.57,838.29.15,787.47c2.49-46.33,33.83-53.38,41-100,7.47-48.53-18.52-92.75-41-122,19.33-6.39,50.77-16.25,90-26C429.53,455.13,563,575.29,961,550.47c66.66-4.16,177.64-13.75,337.63-12.35,49.79.44,104.44,2.46,166.74,7,102.11,7.44,185.67,18.8,240.86,27.35,3.45-1.45,42.19-17.11,67,3,13.67,11.1,16.4,27.66,19,45,1.23,8.16,6,44.4-15,98-15.83,40.48-27,41.44-36,78-5.57,22.63-3.05,29.41-9,50-8.65,29.94-24.39,51.63-36.2,65.18h0C1693.49,925.82,1691.14,937.78,1689.3,946.69Z"/><rect class="cls-5" x="1537.23" y="476.23" width="155.93" height="112.52"/><polygon class="cls-6" points="1615.36 406.25 1654.26 441.04 1693.16 475.83 1615.36 475.83 1537.56 475.83 1576.46 441.04 1615.36 406.25"/><rect class="cls-7" x="1605.06" y="581.2" width="14.63" height="8.35"/><rect class="cls-7" x="1619.68" y="573.25" width="14.63" height="8.35"/><rect class="cls-7" x="1663.94" y="540.98" width="14.63" height="8.35" transform="translate(3343.41 1087.55) rotate(179.91)"/><rect class="cls-7" x="1649.32" y="548.96" width="14.63" height="8.35" transform="translate(3314.19 1103.53) rotate(179.91)"/><rect class="cls-7" x="1678.58" y="548.91" width="14.63" height="8.35" transform="translate(3372.7 1103.38) rotate(179.91)"/><rect class="cls-7" x="1677.92" y="504.42" width="14.63" height="8.35" transform="translate(3371.3 1014.42) rotate(179.91)"/><rect class="cls-7" x="1536.95" y="504.41" width="14.63" height="8.35" transform="translate(3089.36 1014.62) rotate(179.91)"/><path class="cls-8" d="M133.25,799.86c5.92-9.42-11.85-9.42-5.93,0-5.92-9.42-14.81,4.71-3,4.71-11.85,0-3,14.14,3,4.71-5.92,9.43,11.85,9.43,5.93,0,5.92,9.43,14.8-4.71,3-4.71C148.05,804.57,139.17,790.44,133.25,799.86Z"/><ellipse class="cls-9" cx="130.39" cy="804.08" rx="3.61" ry="3.51"/><path class="cls-8" d="M235.37,787.88c5.92-9.42-11.85-9.42-5.93,0-5.92-9.42-14.81,4.72-3,4.72-11.85,0-3,14.13,3,4.71-5.92,9.42,11.85,9.42,5.93,0,5.92,9.42,14.8-4.71,3-4.71C250.17,792.6,241.29,778.46,235.37,787.88Z"/><ellipse class="cls-9" cx="232.51" cy="792.11" rx="3.61" ry="3.51"/><path class="cls-8" d="M313.76,805.06c5.92-9.43-11.85-9.43-5.92,0-5.93-9.43-14.81,4.71-3,4.71-11.85,0-3,14.14,3,4.71-5.93,9.43,11.84,9.43,5.92,0,5.92,9.43,14.81-4.71,3-4.71C328.57,809.77,319.68,795.63,313.76,805.06Z"/><ellipse class="cls-9" cx="310.91" cy="809.28" rx="3.61" ry="3.51"/><path class="cls-8" d="M405.55,790.37c5.92-9.42-11.85-9.42-5.92,0-5.93-9.42-14.81,4.71-3,4.71-11.84,0-3,14.14,3,4.72-5.93,9.42,11.84,9.42,5.92,0,5.92,9.42,14.81-4.72,3-4.72C420.36,795.08,411.47,781,405.55,790.37Z"/><ellipse class="cls-9" cx="402.69" cy="794.6" rx="3.61" ry="3.51"/><path class="cls-8" d="M1591.16,790.28c5.93-8-11.84-8-5.92,0-5.92-8-14.81,4-3,4-11.85,0-3,11.93,3,4-5.92,7.95,11.85,7.95,5.92,0,5.93,7.95,14.81-4,3-4C1606,794.25,1597.09,782.32,1591.16,790.28Z"/><ellipse class="cls-9" cx="1588.31" cy="793.84" rx="3.61" ry="2.96"/><rect class="cls-10" x="92.8" y="383.88" width="388.93" height="234.54"/><polygon class="cls-7" points="287.68 238.02 384.7 310.53 481.73 383.05 287.68 383.05 93.63 383.05 190.65 310.53 287.68 238.02"/><rect class="cls-7" x="261.97" y="602.67" width="36.49" height="17.4"/><rect class="cls-7" x="298.46" y="586.09" width="36.49" height="17.4"/><rect class="cls-7" x="225.48" y="586.09" width="36.49" height="17.4"/><rect class="cls-7" x="129.27" y="511.5" width="36.49" height="17.4" transform="translate(295.75 1040.21) rotate(179.92)"/><rect class="cls-7" x="92.81" y="528.13" width="36.49" height="17.4" transform="translate(222.84 1073.51) rotate(179.92)"/><rect class="cls-7" x="165.78" y="528.03" width="36.49" height="17.4" transform="translate(368.8 1073.2) rotate(179.92)"/><rect class="cls-7" x="408.85" y="518.83" width="36.49" height="17.4" transform="translate(854.91 1054.48) rotate(179.92)"/><rect class="cls-7" x="372.38" y="535.46" width="36.49" height="17.4" transform="translate(782 1087.78) rotate(179.92)"/><rect class="cls-7" x="445.36" y="535.36" width="36.49" height="17.4" transform="translate(927.96 1087.48) rotate(179.92)"/><rect class="cls-7" x="443.7" y="442.64" width="36.49" height="17.4" transform="translate(924.51 902.04) rotate(179.92)"/><rect class="cls-7" x="92.09" y="442.61" width="36.49" height="17.4" transform="translate(221.29 902.48) rotate(179.92)"/><rect class="cls-7" x="266.43" y="630.84" width="12.51" height="105.25" rx="6.19"/><path class="cls-11" d="M266.31,434.84,232.1,637.93a8.14,8.14,0,0,0,8,9.49h68.4a8.14,8.14,0,0,0,8-9.49L282.35,434.84C280.83,425.79,267.83,425.79,266.31,434.84Z"/><rect class="cls-7" x="1631.79" y="630.73" width="12.51" height="105.25" rx="6.19"/><path class="cls-11" d="M1631.67,434.73l-34.21,203.09a8.14,8.14,0,0,0,8,9.49h68.4a8.14,8.14,0,0,0,8-9.49l-34.21-203.09C1646.19,425.68,1633.19,425.68,1631.67,434.73Z"/><rect class="cls-7" x="391.28" y="629.07" width="12.51" height="105.25" rx="6.19"/><path class="cls-11" d="M391.15,433.07,357,636.16a8.13,8.13,0,0,0,8,9.49h68.41a8.13,8.13,0,0,0,8-9.49L407.2,433.07C405.68,424,392.68,424,391.15,433.07Z"/><rect class="cls-7" x="513.08" y="627.42" width="12.51" height="105.25" rx="6.19"/><path class="cls-11" d="M513,431.41,478.75,634.5a8.13,8.13,0,0,0,8,9.49h68.41a8.13,8.13,0,0,0,8-9.49L529,431.41C527.48,422.36,514.48,422.36,513,431.41Z"/><rect class="cls-7" x="1515" y="633.22" width="12.51" height="105.25" rx="6.19"/><path class="cls-11" d="M1514.87,437.21l-34.2,203.1a8.13,8.13,0,0,0,8,9.48h68.41a8.13,8.13,0,0,0,8-9.48l-34.2-203.1C1529.4,428.16,1516.4,428.16,1514.87,437.21Z"/><rect class="cls-7" x="145.21" y="635.7" width="12.51" height="105.25" rx="6.19"/><path class="cls-11" d="M145.08,439.7l-34.2,203.09a8.14,8.14,0,0,0,8,9.49h68.4a8.14,8.14,0,0,0,8-9.49L161.13,439.7C159.61,430.65,146.61,430.65,145.08,439.7Z"/><rect class="cls-7" x="1399.68" y="631.49" width="12.51" height="105.25" rx="6.19"/><path class="cls-11" d="M1399.56,435.48l-34.21,203.09a8.14,8.14,0,0,0,8,9.49h68.4a8.14,8.14,0,0,0,8-9.49L1415.6,435.48C1414.08,426.43,1401.08,426.43,1399.56,435.48Z"/><rect class="cls-7" x="1283.72" y="629.83" width="12.51" height="105.25" rx="6.19"/><path class="cls-11" d="M1283.6,433.82l-34.21,203.1a8.14,8.14,0,0,0,8,9.48h68.4a8.14,8.14,0,0,0,8-9.48l-34.2-203.1C1298.12,424.78,1285.12,424.78,1283.6,433.82Z"/><rect class="cls-7" x="1166.93" y="629.83" width="12.51" height="105.25" rx="6.19"/><path class="cls-11" d="M1166.8,433.82l-34.2,203.1a8.13,8.13,0,0,0,8,9.48H1209a8.13,8.13,0,0,0,8-9.48l-34.2-203.1C1181.33,424.78,1168.33,424.78,1166.8,433.82Z"/><polygon class="cls-12" points="1102.67 771.67 1092.04 771.67 1081.4 771.67 1070.76 771.67 1060.13 771.67 1060.13 746.93 1060.13 722.18 1060.13 697.44 1060.13 672.7 1067.76 666.19 1081.94 655.77 1093.94 664.88 1102.67 672.7 1102.67 697.44 1102.67 722.18 1102.67 746.93 1102.67 771.67"/><polygon class="cls-12" points="1152.62 771.67 1141.98 771.67 1131.35 771.67 1120.71 771.67 1110.07 771.67 1110.07 746.93 1110.07 722.18 1110.07 697.44 1110.07 672.7 1117.71 666.19 1131.89 655.77 1143.89 664.88 1152.62 672.7 1152.62 697.44 1152.62 722.18 1152.62 746.93 1152.62 771.67"/><polygon class="cls-12" points="1204.41 771.67 1193.78 771.67 1183.14 771.67 1172.5 771.67 1161.87 771.67 1161.87 746.93 1161.87 722.18 1161.87 697.44 1161.87 672.7 1169.5 666.19 1183.69 655.77 1195.69 664.88 1204.41 672.7 1204.41 697.44 1204.41 722.18 1204.41 746.93 1204.41 771.67"/><rect class="cls-13" x="1115.15" y="632.4" width="32.38" height="160.94" transform="translate(418.48 1844.21) rotate(-90)"/><polygon class="cls-12" points="1263.51 771.67 1252.87 771.67 1242.24 771.67 1231.6 771.67 1220.96 771.67 1220.96 746.93 1220.96 722.18 1220.96 697.44 1220.96 672.7 1228.6 666.19 1242.78 655.77 1254.78 664.88 1263.51 672.7 1263.51 697.44 1263.51 722.18 1263.51 746.93 1263.51 771.67"/><polygon class="cls-12" points="1313.46 771.67 1302.82 771.67 1292.18 771.67 1281.55 771.67 1270.91 771.67 1270.91 746.93 1270.91 722.18 1270.91 697.44 1270.91 672.7 1278.55 666.19 1292.73 655.77 1304.73 664.88 1313.46 672.7 1313.46 697.44 1313.46 722.18 1313.46 746.93 1313.46 771.67"/><polygon class="cls-12" points="1365.25 771.67 1354.62 771.67 1343.98 771.67 1333.34 771.67 1322.7 771.67 1322.7 746.93 1322.7 722.18 1322.7 697.44 1322.7 672.7 1330.34 666.19 1344.52 655.77 1356.52 664.88 1365.25 672.7 1365.25 697.44 1365.25 722.18 1365.25 746.93 1365.25 771.67"/><rect class="cls-13" x="1275.99" y="632.4" width="32.38" height="160.94" transform="translate(579.31 2005.05) rotate(-90)"/><polygon class="cls-12" points="1424.19 771.67 1413.55 771.67 1402.91 771.67 1392.28 771.67 1381.64 771.67 1381.64 746.93 1381.64 722.18 1381.64 697.44 1381.64 672.7 1389.28 666.19 1403.46 655.77 1415.46 664.88 1424.19 672.7 1424.19 697.44 1424.19 722.18 1424.19 746.93 1424.19 771.67"/><polygon class="cls-12" points="1474.13 771.67 1463.49 771.67 1452.86 771.67 1442.22 771.67 1431.59 771.67 1431.59 746.93 1431.59 722.18 1431.59 697.44 1431.59 672.7 1439.22 666.19 1453.4 655.77 1465.4 664.88 1474.13 672.7 1474.13 697.44 1474.13 722.18 1474.13 746.93 1474.13 771.67"/><polygon class="cls-12" points="1525.93 771.67 1515.29 771.67 1504.65 771.67 1494.02 771.67 1483.38 771.67 1483.38 746.93 1483.38 722.18 1483.38 697.44 1483.38 672.7 1491.02 666.19 1505.2 655.77 1517.2 664.88 1525.93 672.7 1525.93 697.44 1525.93 722.18 1525.93 746.93 1525.93 771.67"/><rect class="cls-13" x="1436.67" y="632.4" width="32.38" height="160.94" transform="translate(739.99 2165.73) rotate(-90)"/><polygon class="cls-12" points="1585.02 771.67 1574.39 771.67 1563.75 771.67 1553.12 771.67 1542.48 771.67 1542.48 746.93 1542.48 722.18 1542.48 697.44 1542.48 672.7 1550.11 666.19 1564.3 655.77 1576.3 664.88 1585.02 672.7 1585.02 697.44 1585.02 722.18 1585.02 746.93 1585.02 771.67"/><polygon class="cls-12" points="1634.97 771.67 1624.33 771.67 1613.7 771.67 1603.06 771.67 1592.42 771.67 1592.42 746.93 1592.42 722.18 1592.42 697.44 1592.42 672.7 1600.06 666.19 1614.24 655.77 1626.24 664.88 1634.97 672.7 1634.97 697.44 1634.97 722.18 1634.97 746.93 1634.97 771.67"/><polygon class="cls-12" points="1686.77 771.67 1676.13 771.67 1665.49 771.67 1654.86 771.67 1644.22 771.67 1644.22 746.93 1644.22 722.18 1644.22 697.44 1644.22 672.7 1651.86 666.19 1666.04 655.77 1678.04 664.88 1686.77 672.7 1686.77 697.44 1686.77 722.18 1686.77 746.93 1686.77 771.67"/><rect class="cls-13" x="1597.5" y="632.4" width="32.38" height="160.94" transform="translate(900.83 2326.56) rotate(-90)"/><rect class="cls-7" x="634.69" y="624.03" width="12.51" height="105.25" rx="6.19"/><path class="cls-11" d="M634.56,428l-34.2,203.09a8.13,8.13,0,0,0,8,9.49h68.41a8.13,8.13,0,0,0,8-9.49L650.61,428C649.08,419,636.08,419,634.56,428Z"/><polygon class="cls-12" points="144.67 766.81 134.03 766.81 123.4 766.81 112.76 766.81 102.12 766.81 102.12 742.07 102.12 717.33 102.12 692.59 102.12 667.84 109.76 661.33 123.94 650.91 135.94 660.03 144.67 667.84 144.67 692.59 144.67 717.33 144.67 742.07 144.67 766.81"/><polygon class="cls-12" points="194.62 766.81 183.98 766.81 173.34 766.81 162.71 766.81 152.07 766.81 152.07 742.07 152.07 717.33 152.07 692.59 152.07 667.84 159.71 661.33 173.89 650.91 185.89 660.03 194.62 667.84 194.62 692.59 194.62 717.33 194.62 742.07 194.62 766.81"/><polygon class="cls-12" points="246.41 766.81 235.78 766.81 225.14 766.81 214.5 766.81 203.87 766.81 203.87 742.07 203.87 717.33 203.87 692.59 203.87 667.84 211.5 661.33 225.68 650.91 237.68 660.03 246.41 667.84 246.41 692.59 246.41 717.33 246.41 742.07 246.41 766.81"/><rect class="cls-13" x="157.15" y="627.54" width="32.38" height="160.94" transform="translate(-534.67 881.35) rotate(-90)"/><polygon class="cls-12" points="305.51 766.81 294.87 766.81 284.24 766.81 273.6 766.81 262.96 766.81 262.96 742.07 262.96 717.33 262.96 692.59 262.96 667.84 270.6 661.33 284.78 650.91 296.78 660.03 305.51 667.84 305.51 692.59 305.51 717.33 305.51 742.07 305.51 766.81"/><polygon class="cls-12" points="355.45 766.81 344.82 766.81 334.18 766.81 323.54 766.81 312.91 766.81 312.91 742.07 312.91 717.33 312.91 692.59 312.91 667.84 320.54 661.33 334.73 650.91 346.73 660.03 355.45 667.84 355.45 692.59 355.45 717.33 355.45 742.07 355.45 766.81"/><polygon class="cls-12" points="407.25 766.81 396.61 766.81 385.98 766.81 375.34 766.81 364.7 766.81 364.7 742.07 364.7 717.33 364.7 692.59 364.7 667.84 372.34 661.33 386.52 650.91 398.52 660.03 407.25 667.84 407.25 692.59 407.25 717.33 407.25 742.07 407.25 766.81"/><rect class="cls-13" x="317.99" y="627.54" width="32.38" height="160.94" transform="translate(-373.83 1042.19) rotate(-90)"/><polygon class="cls-12" points="466.18 766.81 455.55 766.81 444.91 766.81 434.27 766.81 423.64 766.81 423.64 742.07 423.64 717.33 423.64 692.59 423.64 667.84 431.27 661.33 445.46 650.91 457.46 660.03 466.18 667.84 466.18 692.59 466.18 717.33 466.18 742.07 466.18 766.81"/><polygon class="cls-12" points="516.13 766.81 505.49 766.81 494.86 766.81 484.22 766.81 473.58 766.81 473.58 742.07 473.58 717.33 473.58 692.59 473.58 667.84 481.22 661.33 495.4 650.91 507.4 660.03 516.13 667.84 516.13 692.59 516.13 717.33 516.13 742.07 516.13 766.81"/><polygon class="cls-12" points="567.93 766.81 557.29 766.81 546.65 766.81 536.02 766.81 525.38 766.81 525.38 742.07 525.38 717.33 525.38 692.59 525.38 667.84 533.02 661.33 547.2 650.91 559.2 660.03 567.93 667.84 567.93 692.59 567.93 717.33 567.93 742.07 567.93 766.81"/><rect class="cls-13" x="478.66" y="627.54" width="32.38" height="160.94" transform="translate(-213.15 1202.87) rotate(-90)"/><polygon class="cls-12" points="627.02 766.81 616.39 766.81 605.75 766.81 595.11 766.81 584.48 766.81 584.48 742.07 584.48 717.33 584.48 692.59 584.48 667.84 592.11 661.33 606.29 650.91 618.29 660.03 627.02 667.84 627.02 692.59 627.02 717.33 627.02 742.07 627.02 766.81"/><polygon class="cls-12" points="678.55 765.93 667.91 765.93 657.27 765.93 646.64 765.93 636 765.93 636 741.19 636 716.44 636 691.7 636 666.96 643.64 660.45 657.82 650.03 669.82 659.14 678.55 666.96 678.55 691.7 678.55 716.44 678.55 741.19 678.55 765.93"/><polygon class="cls-12" points="728.76 766.81 718.13 766.81 707.49 766.81 696.85 766.81 686.22 766.81 686.22 742.07 686.22 717.33 686.22 692.59 686.22 667.84 693.85 661.33 708.04 650.91 720.04 660.03 728.76 667.84 728.76 692.59 728.76 717.33 728.76 742.07 728.76 766.81"/><rect class="cls-13" x="639.5" y="627.54" width="32.38" height="160.94" transform="translate(-52.32 1363.71) rotate(-90)"/><path class="cls-8" d="M1647.47,808.09c5.92-8-11.85-8-5.93,0-5.92-8-14.81,4-3,4-11.85,0-3,11.93,3,4-5.92,8,11.85,8,5.93,0,5.92,8,14.8-4,3-4C1662.27,812.07,1653.39,800.14,1647.47,808.09Z"/><ellipse class="cls-9" cx="1644.61" cy="811.66" rx="3.61" ry="2.96"/><path class="cls-8" d="M1453.09,793.18c5.92-8-11.85-8-5.93,0-5.92-8-14.8,4-3,4-11.84,0-3,11.93,3,4-5.92,8,11.85,8,5.93,0,5.92,8,14.81-4,3-4C1467.9,797.15,1459,785.22,1453.09,793.18Z"/><ellipse class="cls-9" cx="1450.23" cy="796.74" rx="3.61" ry="2.96"/><path class="cls-8" d="M1526.5,809.75c5.92-8-11.85-8-5.92,0-5.93-8-14.81,4-3,4-11.85,0-3,11.93,3,4-5.93,8,11.84,8,5.92,0,5.92,8,14.81-4,3-4C1541.31,813.73,1532.42,801.8,1526.5,809.75Z"/><ellipse class="cls-9" cx="1523.65" cy="813.32" rx="3.61" ry="2.96"/><ellipse class="cls-14" cx="571.7" cy="142.5" rx="48.45" ry="35.43"/><ellipse class="cls-14" cx="511.81" cy="163.64" rx="59.34" ry="48"/><ellipse class="cls-14" cx="570.61" cy="192.22" rx="45.73" ry="40"/><ellipse class="cls-14" cx="986.8" cy="255.22" rx="43.8" ry="22.79"/><ellipse class="cls-14" cx="1021.84" cy="237.82" rx="43.8" ry="22.79"/><ellipse class="cls-14" cx="1026.01" cy="265.99" rx="43.8" ry="22.79"/><ellipse class="cls-14" cx="1483.17" cy="230.14" rx="43.8" ry="22.79"/><ellipse class="cls-14" cx="1531.56" cy="204.87" rx="45.47" ry="33.15"/><ellipse class="cls-4" cx="1011.82" cy="513.16" rx="17.1" ry="19.06"/><ellipse class="cls-4" cx="1040.19" cy="493.27" rx="17.1" ry="19.06"/><ellipse class="cls-4" cx="1070.22" cy="476.7" rx="17.1" ry="19.06"/><ellipse class="cls-4" cx="987.63" cy="538.85" rx="17.1" ry="19.06"/><ellipse class="cls-15" cx="715.67" cy="440.65" rx="12.93" ry="15.33"/><ellipse class="cls-15" cx="696.48" cy="457.22" rx="12.93" ry="15.33"/><ellipse class="cls-15" cx="734.86" cy="429.87" rx="12.93" ry="15.33"/><ellipse class="cls-15" cx="562.17" cy="483.74" rx="12.93" ry="15.33"/><ellipse class="cls-15" cx="580.52" cy="466.34" rx="12.93" ry="15.33"/><path class="cls-16" d="M837.43,415.76a4.1,4.1,0,0,0-4.91,2.15L767,556.55a3.15,3.15,0,0,0,1.78,4.46,4.1,4.1,0,0,0,4.9-2.14l65.55-138.65A3.16,3.16,0,0,0,837.43,415.76Z"/><path class="cls-17" d="M834.13,424.48l-12-2.89a9,9,0,0,1,.78-1.23,11.1,11.1,0,0,1,1-1.12Z"/><path class="cls-17" d="M833.39,424.19l-7.82-7.65a15.22,15.22,0,0,1,1.54-.67c.53-.19,1.07-.36,1.63-.5Z"/><path class="cls-17" d="M828.28,436.3l-12.06-2.89a10.23,10.23,0,0,1,.79-1.23,11.1,11.1,0,0,1,1-1.12Z"/><path class="cls-17" d="M827.53,436l-7.81-7.65a14.3,14.3,0,0,1,1.54-.67,16.09,16.09,0,0,1,1.62-.5Z"/><path class="cls-17" d="M822.59,448.46l-12.05-2.9a9,9,0,0,1,.78-1.22,10.1,10.1,0,0,1,1-1.12Z"/><path class="cls-17" d="M821.85,448.16,814,440.51a15.17,15.17,0,0,1,1.54-.66c.53-.2,1.07-.36,1.62-.51Z"/><path class="cls-17" d="M816.91,459.4l-12.06-2.9a11.41,11.41,0,0,1,.78-1.22,12.75,12.75,0,0,1,1-1.12Z"/><path class="cls-17" d="M816.16,459.1l-7.81-7.65a14.26,14.26,0,0,1,1.54-.66,16.11,16.11,0,0,1,1.62-.51Z"/><path class="cls-17" d="M811.22,470.34l-12.05-2.9a9,9,0,0,1,.78-1.22,10.1,10.1,0,0,1,1-1.12Z"/><path class="cls-17" d="M810.48,470l-7.82-7.65a15.17,15.17,0,0,1,1.54-.66c.53-.2,1.07-.36,1.62-.51Z"/><path class="cls-17" d="M805.54,482.49l-12.06-2.89a11.53,11.53,0,0,1,.78-1.23,12.53,12.53,0,0,1,1-1.12Z"/><path class="cls-17" d="M804.79,482.2,797,474.55a15.4,15.4,0,0,1,1.55-.67,16.09,16.09,0,0,1,1.62-.5Z"/><path class="cls-17" d="M801.27,493.43l-12-2.89a9,9,0,0,1,.78-1.23,11.1,11.1,0,0,1,1-1.12Z"/><path class="cls-17" d="M800.53,493.14l-7.82-7.65a15.22,15.22,0,0,1,1.54-.67c.53-.19,1.07-.36,1.62-.5Z"/><path class="cls-17" d="M795.59,504.37l-12.06-2.89a10.49,10.49,0,0,1,.78-1.22,11.37,11.37,0,0,1,1-1.13Z"/><path class="cls-17" d="M794.84,504.08,787,496.43a15.4,15.4,0,0,1,1.55-.67,16.09,16.09,0,0,1,1.62-.5Z"/><path class="cls-17" d="M789.9,516.53l-12-2.9a9.61,9.61,0,0,1,.78-1.22,10.1,10.1,0,0,1,1-1.12Z"/><path class="cls-17" d="M789.15,516.23l-7.81-7.65a15.17,15.17,0,0,1,1.54-.66,14.49,14.49,0,0,1,1.62-.5Z"/><path class="cls-17" d="M784.21,527.47l-12.05-2.9a10.87,10.87,0,0,1,.78-1.22,11.27,11.27,0,0,1,1-1.12Z"/><path class="cls-17" d="M783.47,527.17l-7.82-7.64a12.7,12.7,0,0,1,1.55-.67,13.87,13.87,0,0,1,1.62-.5Z"/><path class="cls-17" d="M778.53,538.41l-12.06-2.89a10.23,10.23,0,0,1,.79-1.23,10.1,10.1,0,0,1,1-1.12Z"/><path class="cls-17" d="M777.78,538.11,770,530.47a12.55,12.55,0,0,1,1.54-.67,16.09,16.09,0,0,1,1.62-.5Z"/><path class="cls-17" d="M774.26,548.13l-12-2.89A9.32,9.32,0,0,1,763,544a11.37,11.37,0,0,1,1-1.13Z"/><path class="cls-17" d="M773.52,547.84l-7.82-7.65a14.47,14.47,0,0,1,1.55-.67,16.09,16.09,0,0,1,1.62-.5Z"/><path class="cls-17" d="M771.42,557.86l-12-2.9a9.61,9.61,0,0,1,.78-1.22,10.1,10.1,0,0,1,1-1.12Z"/><path class="cls-17" d="M770.68,557.56l-7.82-7.65a16,16,0,0,1,3.16-1.16Z"/><path class="cls-16" d="M866.74,421.54a3.9,3.9,0,0,0-4.65,2L800,555.46a3,3,0,0,0,1.69,4.24,3.88,3.88,0,0,0,4.65-2l62.12-131.88A3,3,0,0,0,866.74,421.54Z"/><path class="cls-17" d="M863.61,429.84l-11.42-2.76a9.81,9.81,0,0,1,.74-1.16,11.35,11.35,0,0,1,.92-1.07Z"/><path class="cls-17" d="M862.91,429.56l-7.41-7.28a13.66,13.66,0,0,1,1.46-.63,13.11,13.11,0,0,1,1.54-.48Z"/><path class="cls-17" d="M858.07,441.08l-11.43-2.75a9.16,9.16,0,0,1,.74-1.17,10.12,10.12,0,0,1,.92-1.06Z"/><path class="cls-17" d="M857.36,440.8,850,433.52c.47-.23,1-.44,1.46-.63s1-.34,1.54-.48Z"/><path class="cls-17" d="M852.68,452.64l-11.43-2.75a8.41,8.41,0,0,1,.74-1.16,10.21,10.21,0,0,1,.92-1.07Z"/><path class="cls-17" d="M852,452.36l-7.41-7.27a14.66,14.66,0,0,1,1.46-.64c.5-.18,1-.34,1.54-.48Z"/><path class="cls-17" d="M847.29,463.05l-11.43-2.75a10.42,10.42,0,0,1,.74-1.17,11.45,11.45,0,0,1,.92-1.06Z"/><path class="cls-17" d="M846.58,462.77l-7.41-7.28q.71-.35,1.47-.63a14.37,14.37,0,0,1,1.53-.48Z"/><path class="cls-17" d="M841.9,473.45l-11.43-2.75a9.14,9.14,0,0,1,.75-1.16,10.11,10.11,0,0,1,.91-1.07Z"/><path class="cls-17" d="M841.19,473.18l-7.41-7.28a13.87,13.87,0,0,1,1.47-.64,15.1,15.1,0,0,1,1.53-.47Z"/><path class="cls-17" d="M836.51,485l-11.42-2.76a9.81,9.81,0,0,1,.74-1.16,11.22,11.22,0,0,1,.91-1.07Z"/><path class="cls-17" d="M835.8,484.74l-7.4-7.28a15.45,15.45,0,0,1,3-1.11Z"/><path class="cls-17" d="M832.47,495.42,821,492.67a8.49,8.49,0,0,1,.75-1.16,10.11,10.11,0,0,1,.91-1.07Z"/><path class="cls-17" d="M831.76,495.14l-7.41-7.27a13.87,13.87,0,0,1,1.47-.64,15.1,15.1,0,0,1,1.53-.47Z"/><path class="cls-17" d="M827.08,505.83l-11.42-2.75a8.17,8.17,0,0,1,.74-1.17,10,10,0,0,1,.91-1.06Z"/><path class="cls-17" d="M826.37,505.55l-7.4-7.28a14.92,14.92,0,0,1,1.46-.63c.49-.18,1-.34,1.53-.48Z"/><path class="cls-17" d="M821.69,517.39l-11.42-2.75a8.41,8.41,0,0,1,.74-1.16,9.15,9.15,0,0,1,.92-1.07Z"/><path class="cls-17" d="M821,517.11l-7.4-7.27a12.87,12.87,0,0,1,1.46-.64c.49-.18,1-.34,1.54-.48Z"/><path class="cls-17" d="M816.3,527.8l-11.42-2.75a9.16,9.16,0,0,1,.74-1.17,10,10,0,0,1,.92-1.07Z"/><path class="cls-17" d="M815.6,527.52l-7.41-7.28a12.84,12.84,0,0,1,1.46-.63,13.11,13.11,0,0,1,1.54-.48Z"/><path class="cls-17" d="M810.91,538.2l-11.42-2.75a8.41,8.41,0,0,1,.74-1.16,9.15,9.15,0,0,1,.92-1.07Z"/><path class="cls-17" d="M810.21,537.92l-7.41-7.27a12.87,12.87,0,0,1,1.46-.64,15.28,15.28,0,0,1,1.54-.47Z"/><path class="cls-17" d="M806.87,547.45l-11.42-2.75a8.41,8.41,0,0,1,.74-1.16,9.15,9.15,0,0,1,.92-1.07Z"/><path class="cls-17" d="M806.17,547.17l-7.41-7.27a12.87,12.87,0,0,1,1.46-.64,15.28,15.28,0,0,1,1.54-.47Z"/><path class="cls-17" d="M804.18,556.7,792.75,554a8.41,8.41,0,0,1,.74-1.16,11.56,11.56,0,0,1,.92-1.07Z"/><path class="cls-17" d="M803.47,556.42l-7.41-7.27a14.66,14.66,0,0,1,1.46-.64,15.28,15.28,0,0,1,1.54-.47Z"/><path class="cls-16" d="M800.79,407.49a3.87,3.87,0,0,0-4.75,2.26L732.55,555.82a3.42,3.42,0,0,0,1.72,4.69,3.87,3.87,0,0,0,4.75-2.26l63.49-146.06A3.43,3.43,0,0,0,800.79,407.49Z"/><path class="cls-17" d="M797.6,416.68l-11.68-3.05a10.62,10.62,0,0,1,.76-1.29,10.34,10.34,0,0,1,.94-1.18Z"/><path class="cls-17" d="M796.87,416.37l-7.57-8.06a14.69,14.69,0,0,1,1.5-.7,16.08,16.08,0,0,1,1.57-.53Z"/><path class="cls-17" d="M791.93,429.13l-11.68-3.05a10.62,10.62,0,0,1,.76-1.29,11.3,11.3,0,0,1,.94-1.18Z"/><path class="cls-17" d="M791.2,428.82l-7.57-8.06a14.69,14.69,0,0,1,1.5-.7,15.22,15.22,0,0,1,1.57-.53Z"/><path class="cls-17" d="M786.42,441.94l-11.68-3.05a10.62,10.62,0,0,1,.76-1.29,11.57,11.57,0,0,1,.94-1.18Z"/><path class="cls-17" d="M785.7,441.63l-7.57-8.06a12,12,0,0,1,1.49-.7,13.79,13.79,0,0,1,1.57-.53Z"/><path class="cls-17" d="M780.91,453.46l-11.67-3a9.22,9.22,0,0,1,.75-1.29,11.68,11.68,0,0,1,.94-1.19Z"/><path class="cls-17" d="M780.19,453.15l-7.57-8a12.74,12.74,0,0,1,1.49-.71,16.08,16.08,0,0,1,1.57-.53Z"/><path class="cls-17" d="M775.4,465l-11.67-3.05a10.62,10.62,0,0,1,.76-1.29,11.47,11.47,0,0,1,.93-1.18Z"/><path class="cls-17" d="M774.68,464.68l-7.57-8.06a12.83,12.83,0,0,1,1.5-.7,13.15,13.15,0,0,1,1.57-.53Z"/><path class="cls-17" d="M769.9,477.79l-11.68-3a9.91,9.91,0,0,1,.76-1.29,9.54,9.54,0,0,1,.94-1.18Z"/><path class="cls-17" d="M769.18,477.48l-7.57-8.05a13.64,13.64,0,0,1,1.49-.71,16.08,16.08,0,0,1,1.57-.53Z"/><path class="cls-17" d="M765.77,489.32l-11.68-3.05a10.62,10.62,0,0,1,.76-1.29,10.34,10.34,0,0,1,.94-1.18Z"/><path class="cls-17" d="M765,489,757.47,481a14.69,14.69,0,0,1,1.5-.7,16.08,16.08,0,0,1,1.57-.53Z"/><path class="cls-17" d="M760.26,500.84l-11.68-3a9.91,9.91,0,0,1,.76-1.29,10.57,10.57,0,0,1,.94-1.18Z"/><path class="cls-17" d="M759.54,500.54,752,492.48a13.24,13.24,0,0,1,3.06-1.23Z"/><path class="cls-17" d="M754.75,513.65l-11.67-3a10.53,10.53,0,0,1,.75-1.29,13.14,13.14,0,0,1,.94-1.18Z"/><path class="cls-17" d="M754,513.34l-7.57-8.06a15.58,15.58,0,0,1,1.49-.7c.51-.2,1-.38,1.57-.53Z"/><path class="cls-17" d="M749.25,525.17l-11.68-3a10.62,10.62,0,0,1,.76-1.29,10.34,10.34,0,0,1,.94-1.18Z"/><path class="cls-17" d="M748.52,524.87,741,516.81a14.75,14.75,0,0,1,1.5-.71,13.12,13.12,0,0,1,1.57-.52Z"/><path class="cls-17" d="M743.74,536.7l-11.68-3.05a10.62,10.62,0,0,1,.76-1.29,12.78,12.78,0,0,1,.94-1.18Z"/><path class="cls-17" d="M743,536.39l-7.57-8.06a13.59,13.59,0,0,1,1.49-.7,16.08,16.08,0,0,1,1.57-.53Z"/><path class="cls-17" d="M739.61,546.94l-11.68-3a10.62,10.62,0,0,1,.76-1.29,10.34,10.34,0,0,1,.94-1.18Z"/><path class="cls-17" d="M738.89,546.64l-7.57-8.06a13.24,13.24,0,0,1,3.06-1.23Z"/><path class="cls-17" d="M736.85,557.19l-11.67-3.05a10.62,10.62,0,0,1,.76-1.29,10.34,10.34,0,0,1,.94-1.18Z"/><path class="cls-17" d="M736.13,556.88l-7.57-8.06a14.69,14.69,0,0,1,1.5-.7,15.22,15.22,0,0,1,1.57-.53Z"/><path class="cls-16" d="M891.94,429.81a3.48,3.48,0,0,0-4.24,1.95L831,557.33a2.91,2.91,0,0,0,1.54,4,3.49,3.49,0,0,0,4.24-1.94l56.67-125.58A2.91,2.91,0,0,0,891.94,429.81Z"/><path class="cls-17" d="M889.09,437.71l-10.42-2.62a8.07,8.07,0,0,1,.68-1.11,8.82,8.82,0,0,1,.84-1Z"/><path class="cls-17" d="M888.45,437.44l-6.76-6.92a12.32,12.32,0,0,1,1.33-.61q.69-.26,1.41-.45Z"/><path class="cls-17" d="M884,448.42l-10.42-2.62a8.07,8.07,0,0,1,.68-1.11,11.22,11.22,0,0,1,.83-1Z"/><path class="cls-17" d="M883.39,448.15l-6.76-6.93a13.8,13.8,0,0,1,2.73-1.06Z"/><path class="cls-17" d="M879.12,459.43l-10.43-2.63a9.67,9.67,0,0,1,1.52-2.12Z"/><path class="cls-17" d="M878.47,459.16l-6.76-6.93a13.6,13.6,0,0,1,1.34-.6,12.74,12.74,0,0,1,1.4-.46Z"/><path class="cls-17" d="M874.2,469.33l-10.42-2.62a8.28,8.28,0,0,1,.67-1.1,10.35,10.35,0,0,1,.84-1Z"/><path class="cls-17" d="M873.56,469.07l-6.76-6.93a11.45,11.45,0,0,1,1.33-.6,12.74,12.74,0,0,1,1.4-.46Z"/><path class="cls-17" d="M869.28,479.24l-10.42-2.62a9.18,9.18,0,0,1,.68-1.11,8.82,8.82,0,0,1,.84-1Z"/><path class="cls-17" d="M868.64,479l-6.76-6.93a11.65,11.65,0,0,1,1.34-.61c.45-.17.92-.32,1.4-.45Z"/><path class="cls-17" d="M864.37,490.25,854,487.63a9.09,9.09,0,0,1,.67-1.11,8.82,8.82,0,0,1,.84-1Z"/><path class="cls-17" d="M863.72,490,857,483.06a11.5,11.5,0,0,1,1.33-.61c.45-.17.92-.32,1.4-.45Z"/><path class="cls-17" d="M860.68,500.16l-10.42-2.62a8.07,8.07,0,0,1,.68-1.11,9.89,9.89,0,0,1,.83-1Z"/><path class="cls-17" d="M860,499.9,853.28,493a12.32,12.32,0,0,1,1.33-.61c.46-.17.92-.32,1.41-.45Z"/><path class="cls-17" d="M855.77,510.07l-10.42-2.62a8,8,0,0,1,.67-1.11,8.82,8.82,0,0,1,.84-1Z"/><path class="cls-17" d="M855.12,509.8l-6.76-6.92a12.48,12.48,0,0,1,1.34-.61c.45-.17.92-.32,1.4-.45Z"/><path class="cls-17" d="M850.85,521.08l-10.42-2.62a8.07,8.07,0,0,1,.68-1.11,9.89,9.89,0,0,1,.83-1Z"/><path class="cls-17" d="M850.21,520.81l-6.76-6.92a11.5,11.5,0,0,1,1.33-.61c.46-.17.92-.32,1.4-.45Z"/><path class="cls-17" d="M845.94,531l-10.43-2.62a9.18,9.18,0,0,1,.68-1.11,9.87,9.87,0,0,1,.84-1Z"/><path class="cls-17" d="M845.29,530.72l-6.76-6.93a13.6,13.6,0,0,1,1.34-.6,12.7,12.7,0,0,1,1.4-.45Z"/><path class="cls-17" d="M841,540.9l-10.42-2.62a9.09,9.09,0,0,1,.67-1.11q.39-.52.84-1Z"/><path class="cls-17" d="M840.38,540.63l-6.76-6.93a13.42,13.42,0,0,1,1.33-.6,10.88,10.88,0,0,1,1.4-.45Z"/><path class="cls-17" d="M837.33,549.71l-10.42-2.62a9.18,9.18,0,0,1,.68-1.11,9.87,9.87,0,0,1,.84-1Z"/><path class="cls-17" d="M836.69,549.44l-6.76-6.93a14.55,14.55,0,0,1,1.33-.6,13.65,13.65,0,0,1,1.41-.46Z"/><path class="cls-17" d="M834.88,558.51l-10.43-2.62a9.18,9.18,0,0,1,.68-1.11,8.82,8.82,0,0,1,.84-1Z"/><path class="cls-17" d="M834.23,558.25l-6.76-6.93a13.65,13.65,0,0,1,1.34-.61c.45-.17.92-.32,1.4-.45Z"/><path class="cls-16" d="M918,436.42a3,3,0,0,0-3.67,1.84L865.2,556.74a2.82,2.82,0,0,0,1.34,3.81,2.94,2.94,0,0,0,3.67-1.83l49.17-118.49A2.83,2.83,0,0,0,918,436.42Z"/><path class="cls-17" d="M915.57,443.87l-9-2.47a8.19,8.19,0,0,1,.59-1,7.59,7.59,0,0,1,.73-1Z"/><path class="cls-17" d="M915,443.62l-5.87-6.53a8.31,8.31,0,0,1,1.16-.57,9.77,9.77,0,0,1,1.22-.43Z"/><path class="cls-17" d="M911.18,454l-9-2.47a7.69,7.69,0,0,1,.59-1,10.92,10.92,0,0,1,.72-1Z"/><path class="cls-17" d="M910.62,453.72l-5.86-6.53a9.59,9.59,0,0,1,1.16-.57,10.22,10.22,0,0,1,1.21-.43Z"/><path class="cls-17" d="M906.92,464.36l-9-2.47a7.72,7.72,0,0,1,.58-1.05,8.27,8.27,0,0,1,.73-.95Z"/><path class="cls-17" d="M906.36,464.11l-5.86-6.53a8.84,8.84,0,0,1,1.15-.58,12.53,12.53,0,0,1,1.22-.42Z"/><path class="cls-17" d="M902.65,473.71l-9-2.47a7.8,7.8,0,0,1,.59-1.05,9.48,9.48,0,0,1,.72-.95Z"/><path class="cls-17" d="M902.09,473.46l-5.86-6.54a11.34,11.34,0,0,1,1.16-.57,12.34,12.34,0,0,1,1.21-.42Z"/><path class="cls-17" d="M898.39,483.06l-9-2.47a7.72,7.72,0,0,1,.58-1,8.27,8.27,0,0,1,.73-1Z"/><path class="cls-17" d="M897.83,482.81,892,476.27a10.25,10.25,0,0,1,1.15-.57c.4-.16.8-.3,1.22-.43Z"/><path class="cls-17" d="M894.12,493.45l-9-2.47a9.07,9.07,0,0,1,.59-1.05,10.92,10.92,0,0,1,.72-1Z"/><path class="cls-17" d="M893.56,493.2l-5.86-6.54a11.34,11.34,0,0,1,1.16-.57,12.39,12.39,0,0,1,1.21-.43Z"/><path class="cls-17" d="M890.92,502.8l-9-2.47a9.07,9.07,0,0,1,.59-1.05,9.35,9.35,0,0,1,.73-1Z"/><path class="cls-17" d="M890.37,502.55,884.5,496a11.34,11.34,0,0,1,1.16-.57,11.7,11.7,0,0,1,1.22-.43Z"/><path class="cls-17" d="M886.66,512.15l-9-2.47a9,9,0,0,1,.58-1.05,9.35,9.35,0,0,1,.73-1Z"/><path class="cls-17" d="M886.1,511.9l-5.86-6.54a11.18,11.18,0,0,1,1.15-.57,12.58,12.58,0,0,1,1.22-.43Z"/><path class="cls-17" d="M882.39,522.54l-9-2.48a9.85,9.85,0,0,1,.59-1,9.35,9.35,0,0,1,.73-1Z"/><path class="cls-17" d="M881.84,522.29,876,515.75a11.34,11.34,0,0,1,1.16-.57,9.77,9.77,0,0,1,1.22-.43Z"/><path class="cls-17" d="M878.13,531.89l-9-2.48a9.75,9.75,0,0,1,.58-1,9.35,9.35,0,0,1,.73-1Z"/><path class="cls-17" d="M877.57,531.64l-5.86-6.54a11.18,11.18,0,0,1,1.15-.57,10.38,10.38,0,0,1,1.22-.43Z"/><path class="cls-17" d="M873.86,541.23l-9-2.47a9.85,9.85,0,0,1,.59-1,9.35,9.35,0,0,1,.73-1Z"/><path class="cls-17" d="M873.31,541l-5.87-6.53a11.34,11.34,0,0,1,1.16-.57,9.77,9.77,0,0,1,1.22-.43Z"/><path class="cls-17" d="M870.67,549.55l-9-2.48a9.85,9.85,0,0,1,.59-1,9.35,9.35,0,0,1,.73-1Z"/><path class="cls-17" d="M870.11,549.3l-5.87-6.54a11.34,11.34,0,0,1,1.16-.57,9.77,9.77,0,0,1,1.22-.43Z"/><path class="cls-17" d="M868.53,557.86l-9-2.48a9.85,9.85,0,0,1,.59-1,9.35,9.35,0,0,1,.73-1Z"/><path class="cls-17" d="M868,557.61l-5.86-6.54a11.34,11.34,0,0,1,1.16-.57,10.22,10.22,0,0,1,1.21-.43Z"/><path class="cls-18" d="M1685.15,964.47a226.56,226.56,0,0,1-62,43c-46.2,21.51-81,17.73-179,18-101.13.28-83.64,4.35-154,3-73.48-1.41-117.26-2.25-176-13-66.73-12.21-58-19.86-116-29-84.09-13.26-154.45-5.35-191-1-29.65,3.53-20.19,4.1-105,18-70.27,11.52-105.4,17.28-137,20-37.09,3.2-97.27,8.38-167-4-44.26-7.86-102.58-25.82-217-64-36.58-12.21-66.89-22.65-88-30a130.62,130.62,0,0,1-26-13c-47-30.53-60.89-83.26-65-103,146.52,41.15,252.41,43.49,324,37,0,0,155.28-14.07,277-12,15.72.27,31.42,1,31.42,1h0c35,1.5,65.12,4.57,354.58,19,267.7,13.36,418.9,56.06,631,2a1045.92,1045.92,0,0,0,103-32c6.33-6.26,9.38-6.75,11-6,10,4.64.92,63.3-26,112A230.48,230.48,0,0,1,1685.15,964.47Z"/><ellipse class="cls-19" cx="524.14" cy="775.56" rx="35.85" ry="24.09"/><ellipse class="cls-20" cx="523.86" cy="804.02" rx="47.71" ry="38.48"/><path class="cls-21" d="M498.45,785.83c.17-.33,2.72-5,7.48-5s7.31,4.62,7.48,5"/><path class="cls-21" d="M530.2,787.24c.17-.32,2.73-5,7.48-5s7.31,4.63,7.48,5"/><ellipse class="cls-22" cx="524" cy="804.49" rx="13.69" ry="12.04"/><ellipse class="cls-23" cx="519.62" cy="804.34" rx="3.95" ry="4.38"/><ellipse class="cls-23" cx="529.22" cy="804.34" rx="3.95" ry="4.38"/><ellipse class="cls-24" cx="499.86" cy="797.45" rx="7.9" ry="5.01"/><ellipse class="cls-24" cx="546.72" cy="798.08" rx="7.9" ry="5.01"/><ellipse class="cls-20" cx="482.67" cy="769.65" rx="10.49" ry="15.8" transform="translate(-367.97 450.69) rotate(-37.35)"/><path class="cls-25" d="M488.08,763.07a10.53,10.53,0,0,1-2.94,10.58c-.28.27-4.17,3.73-8.39,2-6.11-2.56-9.45-14.67-5.68-18.85S485.78,756.12,488.08,763.07Z"/><ellipse class="cls-20" cx="567.49" cy="773.72" rx="15.57" ry="10.65" transform="translate(-379.82 621.12) rotate(-44.59)"/><path class="cls-25" d="M572.58,780.59c-3.69.85-7.31-1.63-9-4.75-.19-.35-2.73-5.11-.54-9.48,3.17-6.33,14.46-8.25,17.65-3.51S579.11,779.07,572.58,780.59Z"/><ellipse class="cls-20" cx="525.55" cy="874.41" rx="50.53" ry="50.68"/><ellipse class="cls-26" cx="490.75" cy="866.54" rx="10.64" ry="15.58" transform="translate(-468.98 600.72) rotate(-44.99)"/><path class="cls-27" d="M490.72,877.65c-.81-2.88.77-7,2.91-9.82.24-.31,3.51-4.47,6.75-4.33,4.7.21,6.67,9.32,3.45,14S492.15,882.76,490.72,877.65Z"/><ellipse class="cls-26" cx="561" cy="868.46" rx="15.34" ry="10.81" transform="translate(-400.98 489.59) rotate(-35.64)"/><path class="cls-27" d="M551.9,863.8c2.7.39,5.46,3.72,6.84,7,.16.37,2.2,5.4.73,8.6-2.13,4.65-10.42,2.84-12.94-2.37S547.11,863.11,551.9,863.8Z"/><ellipse class="cls-20" cx="484.28" cy="915.21" rx="29.07" ry="11.12" transform="translate(-46.92 26.41) rotate(-2.98)"/><path class="cls-28" d="M472.17,906.93a9.51,9.51,0,0,1,6.3,9.47c0,.41-.47,5.94-5.57,8.25-7.39,3.36-20.36-1.94-20.6-7.84S464.4,904.2,472.17,906.93Z"/><ellipse class="cls-20" cx="558.2" cy="916.15" rx="11.12" ry="29.06" transform="translate(-381.46 1433.8) rotate(-87.5)"/><path class="cls-28" d="M569.64,925.52a9.7,9.7,0,0,1-5.57-10c.06-.41.93-5.87,6.18-7.71,7.62-2.66,20.15,3.82,19.93,9.72S577.17,929,569.64,925.52Z"/><ellipse class="cls-24" cx="525.55" cy="887.55" rx="2.54" ry="2.5"/><path class="cls-29" d="M561.4,901.67c6.69.93,13.51,1.29,15.56-.8s-2-5,0-6.93c1.39-1.39,5.67-2.15,17.19-.26"/><path class="cls-30" d="M799.45,894.43a40.16,40.16,0,0,0,18.48-13.18,46.74,46.74,0,0,0,8.16-16.71"/><path class="cls-31" d="M818.55,923.15,764,918.54a19.2,19.2,0,0,1-7-6.75,17.45,17.45,0,0,1-2.48-8h0a28,28,0,0,1,4.14-7.12A31,31,0,0,1,772.88,887l48,14.82c6.23.83,10.75,6.29,10.1,12.19h0C830.35,919.87,824.78,924,818.55,923.15Z"/><path class="cls-31" d="M753.13,918.42l-57.38,5.09a10.39,10.39,0,0,1-11.7-9.28h0a11,11,0,0,1,9.34-12.08l53.56-16A54.74,54.74,0,0,1,756.13,897a56.43,56.43,0,0,1,3.91,7.14h0c.18.82,1.29,6.22-2.17,10.7A11.79,11.79,0,0,1,753.13,918.42Z"/><rect class="cls-31" x="715.18" y="834.65" width="88.62" height="90.26" rx="30.94"/><ellipse class="cls-31" cx="789.81" cy="752.22" rx="14.79" ry="8.32" transform="translate(-293.58 878.31) rotate(-50.24)"/><ellipse class="cls-31" cx="729.43" cy="751.03" rx="8.32" ry="14.79" transform="translate(-311.64 640.17) rotate(-39.76)"/><rect class="cls-31" x="726.6" y="743.2" width="64.15" height="90.86" rx="29.55"/><path class="cls-32" d="M788.58,804.76c5,13.07-10.41,39.74-29.91,40-20.11.33-36.13-27.55-31-40.64,4.65-11.83,26.51-11.44,31-11.36C764.06,792.91,784.14,793.27,788.58,804.76Z"/><ellipse class="cls-23" cx="747.26" cy="816.42" rx="2.72" ry="3.89"/><ellipse class="cls-23" cx="766.28" cy="816.42" rx="2.72" ry="3.89"/><ellipse class="cls-14" cx="758.67" cy="767.11" rx="7.07" ry="23.91"/><path class="cls-33" d="M746.71,745.59a26.31,26.31,0,0,1,10.33-3c10.35-.73,22.59,5,22.84,11.36.16,4.27-5.06,8.26-9.25,9.56-5.47,1.69-11.56-.48-15.64-5.63-1,1.35-2.31,3.29-3.93,5.63-3.92,5.68-5,7.43-6,7.17-1.82-.47-.77-7-2.72-7.77-2.9-1.1-8.25,12.31-10.87,11.36-1.69-.62-1.62-7.27,0-12.55a24.93,24.93,0,0,1,8.15-12"/><ellipse class="cls-34" cx="726.62" cy="748.31" rx="3.01" ry="6.63" transform="translate(-312.5 657.89) rotate(-40.87)"/><ellipse class="cls-34" cx="790.34" cy="750.34" rx="6.68" ry="2.67" transform="translate(-273.17 988.23) rotate(-56.12)"/><ellipse class="cls-23" cx="740.46" cy="780.56" rx="4.08" ry="6.28"/><ellipse class="cls-23" cx="774.71" cy="779.96" rx="4.08" ry="6.28"/><ellipse class="cls-14" cx="740.73" cy="778.76" rx="2.17" ry="2.69"/><ellipse class="cls-14" cx="774.98" cy="776.97" rx="2.17" ry="2.69"/><path class="cls-35" d="M775.14,930.21a34.86,34.86,0,0,1-14,3.76A34.38,34.38,0,0,1,748,932.09a25.45,25.45,0,0,1-11.56-10.16,27,27,0,0,1-3.32-8.62V880.22a24.42,24.42,0,0,1,3.32-8.62c6.45-10.21,18.45-11,20.32-11.1l6.12.94c1.56,0,14.47-.17,21.2,10.16a23,23,0,0,1,3.31,8.62v33.09a25,25,0,0,1-3.31,8.62A23,23,0,0,1,775.14,930.21Z"/><path class="cls-36" d="M727.59,924.91c-.54,3.23-2.32,5.62-4.4,6-2.36.41-4.11-2-4.45-2.47a12.1,12.1,0,0,1-1.84-6,16.14,16.14,0,0,1,0-3.43,12.63,12.63,0,0,1,1.84-6c1.07-1.49,2.27-1.84,4.45-2.47a13.93,13.93,0,0,1,7.91,0c2.18.63,3.38,1,4.45,2.47a12.61,12.61,0,0,1,1.84,6,18.7,18.7,0,0,1,0,3.43c-.17,2.93-.31,5-1.33,6.66a5.37,5.37,0,0,1-4.9,2.39"/><path class="cls-36" d="M793.46,924.25c-.55,3.22-2.34,5.61-4.43,6-2.39.41-4.14-2-4.49-2.47a12,12,0,0,1-1.86-6,17.61,17.61,0,0,1,0-3.43,12.69,12.69,0,0,1,1.86-6c1.08-1.48,2.29-1.83,4.49-2.47a14.23,14.23,0,0,1,8,0c2.19.64,3.41,1,4.48,2.47a12.68,12.68,0,0,1,1.86,6,19.64,19.64,0,0,1,0,3.43c-.17,2.92-.32,5-1.34,6.65a5.42,5.42,0,0,1-5,2.39"/><path class="cls-36" d="M681,914.93a7,7,0,0,1-5.71-5.57,7.85,7.85,0,0,1,1.95-6.1,8.75,8.75,0,0,1,5.31-2.79,10.36,10.36,0,0,1,3.11-.18,9,9,0,0,1,5.55,2.15c1.42,1.35,1.82,2.94,2.54,5.83a27.45,27.45,0,0,1,.51,10.59c-.43,2.95-.67,4.58-1.95,6.09a9.19,9.19,0,0,1-5.31,2.79,12.25,12.25,0,0,1-3.11.19c-2.67-.08-4.59-.16-6.13-1.44-2.35-1.93-2.48-5.54-2.5-6.43"/><path class="cls-36" d="M838.05,913.44a7.15,7.15,0,0,1,5.32,6,7.74,7.74,0,0,1-2.38,5.91,8.62,8.62,0,0,1-5.48,2.34,10.83,10.83,0,0,1-3.12-.08A9.11,9.11,0,0,1,827,925c-1.32-1.47-1.61-3.09-2.12-6a27.16,27.16,0,0,1,.22-10.6c.63-2.9,1-4.51,2.37-5.91a9,9,0,0,1,5.48-2.34,12.44,12.44,0,0,1,3.12.08c2.65.3,4.56.54,6,1.94,2.21,2.13,2.09,5.74,2,6.63"/><path class="cls-33" d="M829.51,869.25a6,6,0,0,1-4.41-.21,6.89,6.89,0,0,1-3.28-3.68c-2.22-6,8.8-18.9,12.23-17.08S835.23,867.23,829.51,869.25Z"/><path class="cls-37" d="M1022.2,890.07a36.31,36.31,0,0,0,21.85-.33,28.22,28.22,0,0,0,15.49-12.2"/><ellipse class="cls-38" cx="1014.24" cy="914.67" rx="12.31" ry="20.66" transform="translate(-253.46 1422.83) rotate(-63.89)"/><ellipse class="cls-14" cx="1013.64" cy="781.1" rx="3.18" ry="3.25"/><path class="cls-20" d="M1023.88,776.67l-17.48.17v-.17c0-7.72,7.89-14.08,17.48-14.08s17.48,6.36,17.48,14.08Z"/><path class="cls-39" d="M1023.88,776.31l-17.48.06v-.06c0-3.56,7.89-6.5,17.48-6.5s17.48,2.94,17.48,6.5Z"/><ellipse class="cls-14" cx="911.84" cy="783.97" rx="3.18" ry="3.25"/><path class="cls-20" d="M922.08,779.54l-17.49.17v-.17c0-7.72,7.9-14.08,17.49-14.08s17.48,6.36,17.48,14.08Z"/><path class="cls-39" d="M922.08,779.18l-17.49.07v-.07c0-3.56,7.9-6.5,17.49-6.5s17.48,2.94,17.48,6.5Z"/><path class="cls-36" d="M949.09,763.48h-9.53a20.54,20.54,0,0,1-5.57-9.76c-1.28-6.09,1.47-10.91,3.18-13.31l6.36,13.75Z"/><path class="cls-36" d="M996.05,759.57h8.3a19,19,0,0,0,4.85-8.93,16,16,0,0,0-2.77-12.17q-2.77,6.28-5.54,12.58Z"/><ellipse class="cls-38" cx="974.12" cy="793.48" rx="52.05" ry="43.84"/><ellipse class="cls-38" cx="976.51" cy="878.86" rx="59.2" ry="42.19"/><ellipse class="cls-20" cx="974.92" cy="815.9" rx="57.61" ry="33.29"/><path class="cls-23" d="M1021.48,778.05c-.77,1.31-3.93.41-4.41,1.61-.54,1.38,3.16,3.57,2.75,4.3s-3.73-.67-7.15-1.61c-8.25-2.27-13.52-1.32-13.76-2.69-.29-1.7,7.88-3.42,7.71-5.9s-8.08-2.62-8.26-4.84,7-6.17,12.66-4.29c6.21,2,9,10.65,8.8,10.74s-3.5-4.67-3.3-4.84S1022.69,776,1021.48,778.05Z"/><ellipse class="cls-23" cx="949.89" cy="771.72" rx="6.36" ry="6.26"/><ellipse class="cls-40" cx="947.06" cy="770" rx="3.06" ry="2.81"/><ellipse class="cls-40" cx="953.42" cy="773.88" rx="2.35" ry="2.38"/><ellipse class="cls-23" cx="988.92" cy="772.21" rx="6.36" ry="6.26"/><ellipse class="cls-40" cx="986.09" cy="770.48" rx="3.06" ry="2.81"/><ellipse class="cls-40" cx="992.45" cy="774.37" rx="2.35" ry="2.38"/><ellipse class="cls-36" cx="951.98" cy="821.9" rx="6.24" ry="4.63" transform="translate(-131.38 183.06) rotate(-10.28)"/><ellipse class="cls-36" cx="1000.83" cy="820.99" rx="6.24" ry="4.63" transform="translate(-130.43 191.76) rotate(-10.28)"/><ellipse class="cls-20" cx="975.96" cy="883.69" rx="23.99" ry="21.97"/><ellipse class="cls-41" cx="971.14" cy="890.89" rx="2.19" ry="6.43"/><ellipse class="cls-41" cx="970.64" cy="874.34" rx="2.19" ry="6.43"/><ellipse class="cls-41" cx="982.56" cy="874.34" rx="2.19" ry="6.43"/><ellipse class="cls-41" cx="982.56" cy="891.48" rx="2.19" ry="6.43"/><path class="cls-23" d="M1022.1,862.65c-.77,1.3-3.93.41-4.4,1.61-.55,1.37,3.16,3.57,2.75,4.3s-3.74-.67-7.15-1.61c-8.25-2.27-13.53-1.33-13.76-2.69-.3-1.7,7.87-3.43,7.7-5.91s-8.07-2.61-8.25-4.83,7-6.17,12.65-4.3c6.22,2.06,9,10.66,8.81,10.74s-3.51-4.67-3.3-4.83S1023.31,860.58,1022.1,862.65Z"/><ellipse class="cls-42" cx="934.78" cy="872.79" rx="10.02" ry="16.28" transform="translate(-318.54 1127.3) rotate(-54.51)"/><path class="cls-43" d="M950.85,885.55h0c-3.45,3.14-8.46,4.07-11.2,2.08l-3.38-2.46c-2.74-2-2.17-6.16,1.27-9.3h0c3.45-3.14,8.46-4.07,11.2-2.07l3.39,2.46C954.87,878.25,954.29,882.41,950.85,885.55Z"/><ellipse class="cls-42" cx="1018.58" cy="874.65" rx="16.15" ry="10.1" transform="translate(-322.28 806.69) rotate(-37.75)"/><path class="cls-44" d="M1003.19,889.18h0c-3.93-2.7-5.1-6.87-2.62-9.31l3.07-3c2.48-2.44,7.68-2.23,11.61.48h0c3.94,2.7,5.11,6.88,2.62,9.32l-3.07,3C1012.32,892.1,1007.12,891.89,1003.19,889.18Z"/><path class="cls-23" d="M944.49,848.57c.64-.79,2.55,0,3-.7s-1.58-2.59-1.24-3,2.3.74,4.36,1.63c5,2.15,8.45,2,8.44,2.87,0,1.14-5.43,1.6-5.62,3.24s4.82,2.37,4.67,3.83-5.2,3.47-8.58,1.78c-3.71-1.84-4.41-7.69-4.31-7.73a17.29,17.29,0,0,1,1.52,3.43C946.56,854,943.47,849.82,944.49,848.57Z"/><path class="cls-23" d="M937.72,872.37s.07-.11.06-.11a15.05,15.05,0,0,0-1.22,2.11c-.43.88-.35.92-.52,1.19-.95,1.44-4.6,2-6.45.71-1.28-.9-.49-1.85-1.9-3.81-1.64-2.29-3.68-2.3-4-3.77-.26-1.3,1.13-2.39,2.59-3.53,1.82-1.43,3.51-2.75,5.8-2.45,3.48.45,6.24,4.35,5.48,5.86-.24.49-.77.54-.94,1.22A2.81,2.81,0,0,0,937.72,872.37Z"/><path class="cls-23" d="M1018.6,873.25s0-.09,0-.09a11.09,11.09,0,0,1,.48,1.76c.14.72.07.75.15,1,.42,1.2,3.11,1.81,4.81.86,1.18-.66.77-1.46,2.28-3,1.76-1.76,3.33-1.68,3.87-2.85s-.36-2-1.24-3c-1.09-1.23-2.11-2.37-3.94-2.24-2.77.2-5.74,3.21-5.48,4.46.08.41.48.48.46,1A2.91,2.91,0,0,1,1018.6,873.25Z"/><path class="cls-23" d="M1003.6,910s0-.09,0-.1a10.27,10.27,0,0,1,0,1.85c0,.77-.14.82-.12,1.05.11,1.25,2.76,1.42,4.79.06,1.42-1,1.21-1.76,3.19-3.7,2.32-2.28,3.94-2.48,4.82-3.87.78-1.23.16-2.11-.49-3-.81-1.16-1.56-2.23-3.51-1.74-2.95.74-6.87,4.62-6.94,5.94,0,.44.37.44.21,1A5.81,5.81,0,0,1,1003.6,910Z"/><ellipse class="cls-38" cx="936.57" cy="916.87" rx="20.4" ry="12.47" transform="translate(-331.63 585.99) rotate(-29.77)"/><path class="cls-23" d="M935.4,935.26c-4,4.1-12.68,7-19.85,3.22-6.86-3.6-9.1-10.88-5-16.27,2.67-3.49,8.14-6.21,12.23-5.2,2.76.68,2.58,2.47,6.94,4.73s6.52,1.47,8,3.24C940,927.57,938.18,932.4,935.4,935.26Z"/><path class="cls-23" d="M1037.63,921.14c1.92,5,0,12.63-7.72,15.52-7.4,2.76-16,.28-19.1-5.53-2-3.78-1.76-9.06,1.52-11.34,2.2-1.53,3.9-.42,8.58-2.18s5.07-3.71,7.7-3.79C1032.45,913.7,1036.29,917.64,1037.63,921.14Z"/><path class="cls-23" d="M928.35,918.29s0-.07,0-.07a10.07,10.07,0,0,1,.5,1.33c.16.54.11.56.19.73.41.92,2.5,1.52,3.71.9.85-.42.48-1,1.5-2.08,1.2-1.22,2.4-1.07,2.72-1.91s-.43-1.49-1.17-2.27c-.92-1-1.78-1.87-3.16-1.87-2.09,0-4.11,2.08-3.82,3,.1.31.4.38.43.79A1.75,1.75,0,0,1,928.35,918.29Z"/><path class="cls-45" d="M1065.85,878.63c-.42.09-4.94,1-7.76-1.09-2.42-1.85-2.17-4.93-2.12-5.54.66-8.06,16.89-16.25,20.87-13.68S1075.05,876.56,1065.85,878.63Z"/><ellipse class="cls-46" cx="1182.56" cy="859.13" rx="20.62" ry="20.31"/><ellipse class="cls-46" cx="1208" cy="854.15" rx="20.62" ry="20.31"/><ellipse class="cls-46" cx="1204.56" cy="877.66" rx="20.62" ry="20.31"/><ellipse class="cls-46" cx="1239.24" cy="856.28" rx="20.62" ry="20.31"/><ellipse class="cls-46" cx="1258.53" cy="879.09" rx="20.62" ry="20.31"/><ellipse class="cls-46" cx="1158.74" cy="876.24" rx="20.62" ry="20.31"/><ellipse class="cls-46" cx="1184.32" cy="880.51" rx="20.62" ry="20.31"/><ellipse class="cls-46" cx="1228.05" cy="887.76" rx="20.62" ry="20.31"/><ellipse class="cls-47" cx="1207.61" cy="812.72" rx="42.93" ry="33.49"/><path class="cls-48" d="M1167.86,818.8c-4.22,1.13-8.39-2-8.91-2.42s-4.87-3.79-3.94-8.08c1.45-6.72,15.25-11.76,19.71-8.73C1179.58,802.85,1175.17,816.86,1167.86,818.8Z"/><path class="cls-20" d="M1166,811.42a3.41,3.41,0,0,1-3.22-.5,2.58,2.58,0,0,1-.94-2.95c1-2.71,6.64-5.4,8.13-4.44S1169,810.28,1166,811.42Z"/><path class="cls-48" d="M1261.24,808.66c1,3.69-3,7-3.45,7.46s-4.75,3.9-9.66,2.8c-7.7-1.72-12.56-13.9-8.74-17.51C1243.55,797.48,1259.5,802.26,1261.24,808.66Z"/><path class="cls-20" d="M1252.7,807.67a2.31,2.31,0,0,1,.11,2.81,3.37,3.37,0,0,1-3.17,1.41c-3.29-.3-7.53-4.45-6.75-5.9S1250.79,805.45,1252.7,807.67Z"/><ellipse class="cls-46" cx="1179.67" cy="761.77" rx="20.62" ry="20.31"/><ellipse class="cls-46" cx="1205.1" cy="756.78" rx="20.62" ry="20.31"/><ellipse class="cls-46" cx="1201.67" cy="780.3" rx="20.62" ry="20.31"/><ellipse class="cls-46" cx="1230.54" cy="761.06" rx="20.62" ry="20.31"/><ellipse class="cls-46" cx="1241.54" cy="783.15" rx="20.62" ry="20.31"/><ellipse class="cls-46" cx="1167.46" cy="781.01" rx="20.62" ry="20.31"/><ellipse class="cls-46" cx="1181.43" cy="783.15" rx="20.62" ry="20.31"/><ellipse class="cls-46" cx="1222.67" cy="779.7" rx="20.62" ry="20.31"/><ellipse class="cls-46" cx="1169.23" cy="910.09" rx="20.62" ry="20.31"/><ellipse class="cls-46" cx="1212.02" cy="915.39" rx="35.2" ry="28.46"/><ellipse class="cls-46" cx="1248.87" cy="907.24" rx="20.62" ry="20.31"/><ellipse class="cls-46" cx="1168.25" cy="862.49" rx="20.62" ry="20.31"/><ellipse class="cls-46" cx="1253.02" cy="861.63" rx="20.62" ry="20.31"/><ellipse class="cls-45" cx="1162.66" cy="890.8" rx="9.22" ry="10.42" transform="translate(269.09 2051.34) rotate(-89.86)"/><line class="cls-49" x1="1172.37" y1="890.76" x2="1163.56" y2="890.84"/><ellipse class="cls-45" cx="1258.83" cy="892.99" rx="9.22" ry="10.42" transform="translate(363.28 2149.99) rotate(-89.88)"/><line class="cls-49" x1="1249.11" y1="893.02" x2="1257.92" y2="892.95"/><ellipse class="cls-45" cx="1179.19" cy="935.03" rx="8.95" ry="10.73" transform="translate(242.12 2112.61) rotate(-89.9)"/><line class="cls-49" x1="1179.04" y1="943.38" x2="1179.13" y2="935.81"/><ellipse class="cls-45" cx="1245.55" cy="935.03" rx="8.95" ry="10.73" transform="translate(308.38 2178.97) rotate(-89.9)"/><line class="cls-49" x1="1245.4" y1="943.38" x2="1245.5" y2="935.81"/><ellipse class="cls-23" cx="1191.64" cy="812.37" rx="5.81" ry="5.34"/><ellipse class="cls-46" cx="1190.09" cy="811.03" rx="4.26" ry="3.34"/><ellipse class="cls-23" cx="1219.01" cy="811.74" rx="5.81" ry="5.34"/><ellipse class="cls-46" cx="1217.46" cy="810.41" rx="4.26" ry="3.34"/><ellipse class="cls-20" cx="1184.59" cy="822.7" rx="7.88" ry="2.14"/><ellipse class="cls-20" cx="1229.2" cy="822.92" rx="7.88" ry="2.14"/><ellipse class="cls-23" cx="1206.99" cy="821.28" rx="7.05" ry="2.85"/></g></g></svg>