<svg xmlns="http://www.w3.org/2000/svg" viewBox="0 0 264.48 253.09"><defs><style>.cls-1{fill:#634e42;}.cls-2{fill:#00300e;}.cls-3{fill:#063;}.cls-4{fill:#3aaa35;}.cls-5{fill:#95c11f;}.cls-6{fill:#008d36;}</style></defs><g id="Layer_2" data-name="Layer 2"><g id="Layer_1-2" data-name="Layer 1"><path class="cls-1" d="M170.34,94.05c-25.56,47.72-56.13,88.67-6.77,139.3l-20.3-15.1C100.31,167.18,108.32,126.33,170.34,94.05Z"/><path class="cls-2" d="M238.91,250.11c-8.16,4.86-26,2.46-33.36,1.82-9-.84-18.13,0-27.19,0-40.38-.69-73.58,2-84.65-5.46-5-4.76-3.91-11.12-3.71-12.29,3.61-18.83,34.84-20,44.49-16.85,8.42,1.72,8.47,3.83,14.83,4.1,9.22.39,12-3.92,24.1-6.83,23.66-4.6,49.06-1.48,59.93,15.48C235.23,232.75,244.46,245.9,238.91,250.11Z"/><path class="cls-1" d="M200.09,134.23a328.21,328.21,0,0,0-43.21,16.93c-12.61,7.62-28.47,10-30.62,24,19.45-3.94,21.26-8.71,34.69-15.9C175.86,153.24,188.45,147.47,200.09,134.23Z"/><path class="cls-3" d="M143.52,73.58l-1,19.79c-2.54-.51-16-3.45-20.4-12.59-1.4-2.92.13-8,2.91-18,2.53-9.11,4-10.73,6-11.33,2.93-.87,5.76.81,15.5,5.64,16,8,16.75,7.42,18.28,9.29,7.44,9.1-1.74,20.74-3,22.27Z"/><path class="cls-3" d="M74.05,91.1l14.33,16.76c-2.49.63-15.88,3.78-26.48-2-3.39-1.83-6-6.64-11.35-16.08C45.68,81.24,45.68,79.29,46.88,78,48.63,76,52.25,76.25,64,76.2c19.33-.07,19.52-.81,22.21.1C99.3,80.74,100.6,94.17,100.74,96Z"/><path class="cls-4" d="M219.13,65.83,195.51,75.3c-.68-1.87-4.11-11.92,4.35-19.35,2.69-2.37,9.37-4,22.51-7.31,11.93-3,14.58-2.91,16.29-2,2.51,1.42,2,4.07,1.29,12.7-1.13,14.22-.14,14.4-1.55,16.32-6.85,9.35-25.12,9.45-27.55,9.44Z"/><path class="cls-3" d="M226.93,122.13l-26.74-2.07a26.21,26.21,0,0,1,18.47-14.12c4.05-.82,10.78.65,24.17,3.38,12.17,2.49,14.25,3.69,14.92,5.2,1,2.22-1.49,4.18-8.7,11-11.88,11.24-11.2,11.81-13.84,12.8-12.84,4.84-28-2.71-30-3.73Z"/><path class="cls-3" d="M76.78,149.77,101,158.44c-1.67,1.5-10.78,9.38-23.9,8.63-4.19-.24-9.84-3.32-21.15-9.26-10.29-5.39-11.69-7.05-11.62-8.64.11-2.33,3.34-3.55,13.28-8.15,16.37-7.58,16-8.28,18.94-8.55,14.3-1.31,25,9.59,26.42,11.05Z"/><path class="cls-5" d="M174.44,47.74l-.62,15.18c-1.93-.41-12.18-2.7-15.56-9.72-1.08-2.24.05-6.11,2.11-13.79,1.87-7,3-8.22,4.51-8.67,2.22-.66,4.37.64,11.8,4.37,12.23,6.14,12.77,5.73,13.94,7.17,5.7,7-1.21,15.9-2.15,17.07Z"/><path class="cls-4" d="M96.89,59.78l1.59,13.88c-1.92-.08-12.16-.66-16.43-6.55-1.37-1.88-.83-5.56,0-12.85.8-6.61,1.71-7.9,3.11-8.53,2.05-.93,4.32-.06,12,2.24,12.69,3.8,13.16,3.35,14.5,4.48,6.51,5.53,1.12,14.63.38,15.83Z"/><path class="cls-5" d="M245.47,94.12l-16.22-.89a16.86,16.86,0,0,1,11.52-8.31c2.48-.52,6.54.25,14.63,1.67,7.35,1.3,8.59,2,9,2.83.55,1.26-1,2.41-5.52,6.41-7.45,6.58-7.05,6.9-8.67,7.5-7.91,2.92-17-1.25-18.15-1.81Z"/><path class="cls-6" d="M183.92,108.91,168.21,112a12.75,12.75,0,0,1,7.14-10.65c2.11-1.09,6.29-1.36,14.57-2,7.51-.57,9-.24,9.73.48,1.08,1.06.14,2.52-2.33,7.4-4.08,8-3.56,8.23-4.82,9.19-6.16,4.68-16.57,3-17.94,2.7Z"/><path class="cls-6" d="M116.53,111.07l6.23,9.28c-1.37.48-8.7,2.93-13.84,0-1.65-.93-2.63-3.66-4.7-9-1.89-4.86-1.73-6-1-6.84,1.08-1.22,3-1.25,9.19-1.79,10.23-.9,10.38-1.34,11.73-.92,6.57,2,6.18,9.93,6.11,11Z"/><path class="cls-5" d="M31,119l19.67,13.5c-2.19,1.07-14,6.65-26.28,3.1-3.91-1.14-8.09-5.29-16.55-13.41C.19,114.78-.49,112.89.21,111.39c1-2.21,4.6-2.67,15.93-4.93,18.67-3.72,18.59-4.47,21.51-4.09,14.2,1.83,20.13,14.56,20.88,16.26Z"/><path class="cls-3" d="M120.87,22.35l-1,19.79c-2.54-.52-16-3.45-20.4-12.6-1.4-2.91.13-8,2.91-18,2.52-9.12,4-10.73,6-11.33,2.93-.87,5.76.81,15.5,5.64,16,8,16.75,7.41,18.28,9.29,7.43,9.1-1.74,20.74-3,22.27Z"/><path class="cls-6" d="M207,168.32,189.88,153c2.36-.85,15.1-5.22,26.6-.52,3.68,1.51,7.08,6,14,14.91,6.3,8.06,6.64,10,5.68,11.41-1.41,2.09-5,2.21-16.68,3.34-19.16,1.88-19.22,2.63-22.05,2-13.75-3.19-17.35-16.39-17.79-18.14Z"/><path class="cls-6" d="M220,22.61l-23.62,9.46c-.68-1.87-4.11-11.91,4.35-19.34,2.69-2.38,9.37-4,22.51-7.32,11.93-3,14.58-2.91,16.29-1.94,2.51,1.41,2,4.06,1.3,12.69-1.14,14.22-.15,14.4-1.56,16.33-6.85,9.34-25.12,9.44-27.54,9.43Z"/></g></g></svg>